<svg id="svg" version="1.1" width="400" height="218.1818181818182" viewBox="0 0 400 218.1818181818182" xmlns="http://www.w3.org/2000/svg" xmlns:xlink="http://www.w3.org/1999/xlink"><g id="svgg"><path id="path0" d="M211.893 23.165 C 210.314 23.802,210.793 26.064,212.593 26.471 C 222.438 28.695,226.976 30.417,233.833 34.526 C 243.603 40.382,250.915 47.593,256.197 56.583 C 258.627 60.719,259.566 62.596,260.667 65.518 C 262.207 69.604,262.526 70.022,263.909 69.763 C 265.557 69.453,265.726 68.321,264.565 65.369 C 263.545 62.776,260.564 56.752,259.475 55.083 C 258.997 54.350,258.267 53.225,257.854 52.583 C 249.903 40.224,236.714 30.067,222.500 25.355 C 217.859 23.817,212.844 22.782,211.893 23.165 M209.623 35.756 C 207.135 36.251,204.533 37.453,202.620 38.992 C 201.382 39.988,200.878 40.275,201.365 39.708 C 201.893 39.094,201.878 39.000,201.254 39.000 C 200.626 39.000,197.667 41.563,197.667 42.107 C 197.667 42.232,197.597 42.333,197.511 42.333 C 197.426 42.333,197.303 42.501,197.238 42.705 C 197.127 43.055,196.540 43.983,196.314 44.167 C 196.258 44.212,196.159 44.419,196.095 44.625 C 196.030 44.831,195.908 45.000,195.822 45.000 C 195.737 45.000,195.667 45.262,195.667 45.583 C 195.667 46.333,195.715 46.322,196.614 45.375 C 197.311 44.640,197.329 44.631,196.862 45.250 C 195.989 46.405,193.799 48.434,192.480 49.311 C 191.422 50.014,186.440 52.500,186.089 52.500 C 185.775 52.500,179.842 55.606,178.414 56.517 C 171.249 61.093,166.093 67.565,164.824 73.572 C 162.720 83.541,169.406 92.420,179.958 93.669 C 180.898 93.780,181.667 93.941,181.667 94.027 C 181.667 94.259,183.711 94.121,183.789 93.884 C 183.867 93.650,182.690 93.009,182.232 93.035 C 181.912 93.054,175.347 89.913,174.769 89.465 C 174.467 89.231,174.474 89.208,174.936 88.887 C 175.884 88.228,182.305 85.205,182.449 85.349 C 182.532 85.432,182.863 85.304,183.221 85.049 C 184.010 84.487,183.721 84.248,182.442 84.404 C 179.963 84.706,176.263 82.678,175.011 80.328 C 173.165 76.864,174.990 71.689,179.476 67.667 C 182.606 64.861,186.216 62.731,191.333 60.673 C 192.754 60.101,194.254 59.458,194.667 59.244 C 196.617 58.230,197.240 57.961,197.019 58.227 C 196.894 58.377,196.708 58.503,196.605 58.506 C 196.410 58.512,195.336 59.331,195.521 59.333 C 195.579 59.333,195.895 59.221,196.224 59.083 C 196.553 58.946,196.983 58.833,197.179 58.833 C 197.658 58.833,199.015 58.138,199.670 57.556 C 202.290 55.228,202.449 55.058,202.895 54.111 C 203.314 53.220,203.214 53.233,202.081 54.218 L 201.087 55.083 202.126 53.833 C 202.698 53.146,203.911 51.600,204.822 50.398 C 208.736 45.231,211.863 44.390,218.000 46.853 C 219.896 47.614,223.296 49.305,224.333 50.002 C 224.563 50.156,225.838 51.000,227.167 51.879 C 233.075 55.783,239.063 62.347,242.254 68.417 C 242.687 69.242,243.175 70.142,243.337 70.417 C 243.500 70.692,243.943 71.667,244.322 72.583 C 244.701 73.500,245.188 74.662,245.403 75.167 C 245.843 76.196,246.339 77.910,246.945 80.500 C 251.530 100.082,244.065 119.592,227.583 131.100 C 224.186 133.472,218.708 136.168,214.293 137.641 C 200.334 142.298,203.736 161.582,217.917 158.186 C 220.527 157.560,226.823 155.325,228.303 154.498 C 228.457 154.412,229.371 153.977,230.333 153.530 C 245.643 146.423,258.966 131.924,264.831 115.987 C 265.627 113.822,265.625 113.275,264.815 112.593 C 263.476 111.467,262.347 112.202,261.503 114.752 C 261.017 116.218,259.177 120.466,258.833 120.917 C 258.763 121.008,258.211 122.003,257.607 123.127 C 253.177 131.369,246.098 139.179,237.674 145.116 C 230.096 150.456,218.244 155.469,215.703 154.408 C 211.989 152.856,212.877 148.206,217.133 146.919 C 232.626 142.234,246.200 130.668,252.536 116.750 C 253.162 115.375,253.744 114.100,253.830 113.917 C 257.827 105.395,259.257 92.447,257.407 81.515 C 253.916 60.877,238.110 42.705,218.333 36.593 C 214.789 35.497,212.182 35.247,209.623 35.756 M208.613 51.770 C 208.473 51.942,207.850 52.721,207.229 53.500 C 206.608 54.279,205.174 55.836,204.042 56.959 C 201.877 59.109,201.788 59.333,203.101 59.333 C 203.236 59.333,204.298 59.566,205.462 59.851 C 216.049 62.440,223.075 68.218,226.826 77.417 C 227.407 78.840,227.701 79.872,228.486 83.243 C 228.576 83.628,228.871 83.900,229.842 84.490 C 232.314 85.994,235.677 89.732,237.206 92.675 C 238.219 94.627,238.396 94.070,238.401 88.917 C 238.408 82.417,237.052 76.467,234.261 70.750 C 233.340 68.864,231.196 65.522,230.802 65.361 C 230.728 65.331,230.667 65.228,230.667 65.134 C 230.667 64.319,225.802 59.541,222.917 57.521 C 217.476 53.713,209.605 50.548,208.613 51.770 M200.355 89.250 L 200.361 107.583 200.782 106.667 C 201.014 106.162,201.603 104.700,202.091 103.417 C 202.579 102.133,203.251 100.446,203.585 99.667 C 203.919 98.888,204.290 97.984,204.410 97.658 C 205.347 95.119,205.739 94.739,208.833 93.370 C 219.249 88.762,218.610 89.377,214.750 87.680 C 213.650 87.196,212.150 86.516,211.417 86.168 C 210.683 85.820,209.275 85.156,208.287 84.692 C 205.183 83.235,204.985 82.919,201.818 74.368 C 201.537 73.608,201.091 72.520,200.827 71.951 L 200.349 70.917 200.355 89.250 M230.583 169.345 C 226.782 169.841,224.601 171.768,223.808 175.331 C 223.585 176.330,223.488 184.392,223.678 186.083 C 224.182 190.573,225.962 192.514,230.332 193.335 C 231.665 193.585,243.328 193.592,244.583 193.343 C 248.858 192.496,250.594 190.635,251.261 186.183 C 251.437 185.007,251.377 177.354,251.182 176.156 C 250.566 172.375,248.997 170.446,245.833 169.581 C 244.588 169.241,232.785 169.058,230.583 169.345 M259.526 169.423 C 255.798 170.232,254.059 173.732,254.993 178.545 C 255.787 182.635,257.469 183.344,266.335 183.323 C 273.126 183.308,273.500 183.446,273.500 185.976 C 273.500 188.630,273.800 188.550,263.590 188.619 C 257.263 188.662,255.233 188.725,255.135 188.880 C 254.941 189.184,254.973 192.805,255.173 193.178 C 255.406 193.615,272.475 193.678,274.297 193.248 C 277.217 192.560,278.474 191.001,278.864 187.584 C 279.430 182.628,277.737 179.706,274.000 179.187 C 273.404 179.105,270.407 179.025,267.341 179.011 C 263.378 178.993,261.644 178.927,261.347 178.784 C 260.274 178.268,259.854 176.620,260.430 175.183 C 260.916 173.968,260.820 173.981,269.503 173.990 C 278.696 174.000,277.833 174.257,277.833 171.512 C 277.833 170.078,277.778 169.635,277.571 169.429 C 277.207 169.064,261.203 169.059,259.526 169.423 M243.750 174.384 C 245.701 175.263,245.917 175.954,245.917 181.333 C 245.917 188.605,245.942 188.583,237.333 188.583 C 228.937 188.583,228.938 188.584,229.031 180.880 C 229.114 174.008,229.115 174.008,238.000 174.056 C 242.502 174.080,243.160 174.118,243.750 174.384 " stroke="none" fill="#c9f80c" fill-rule="evenodd"></path><path id="path1" d="M187.250 23.275 C 181.218 24.076,173.524 26.666,167.417 29.952 C 153.926 37.211,143.740 47.807,137.571 61.000 C 135.136 66.206,134.601 67.900,135.091 68.849 C 135.855 70.326,137.593 69.674,138.245 67.667 C 139.325 64.339,141.236 60.322,143.636 56.333 C 144.845 54.325,146.815 51.440,147.449 50.750 C 147.617 50.567,148.054 50.004,148.419 49.500 C 148.784 48.996,149.777 47.837,150.625 46.924 C 151.473 46.011,152.167 45.212,152.167 45.149 C 152.167 44.997,157.774 39.878,158.322 39.529 C 158.558 39.379,159.350 38.799,160.083 38.239 C 160.817 37.679,161.754 37.003,162.167 36.736 C 162.579 36.469,163.004 36.169,163.110 36.069 C 163.313 35.878,164.259 35.282,165.917 34.301 C 167.608 33.299,172.773 30.672,173.874 30.253 C 174.448 30.034,175.592 29.594,176.417 29.274 C 182.012 27.105,186.920 26.197,188.390 27.059 C 192.430 29.427,191.220 34.439,186.333 35.578 C 185.084 35.869,183.628 36.311,179.975 37.511 C 177.530 38.314,173.640 40.070,171.472 41.350 C 170.556 41.891,169.772 42.333,169.731 42.333 C 169.424 42.333,163.850 46.300,162.520 47.465 C 143.946 63.733,137.458 86.507,144.754 109.833 C 145.772 113.087,148.484 118.845,150.407 121.833 C 150.614 122.154,151.070 122.867,151.422 123.417 C 156.461 131.300,164.812 138.640,173.616 142.926 C 181.024 146.532,186.554 147.302,191.309 145.389 C 196.762 143.196,198.265 141.724,203.750 133.214 C 205.608 130.331,207.277 128.988,211.583 126.913 C 217.733 123.949,219.623 122.909,222.583 120.857 C 226.676 118.020,230.254 114.295,232.869 110.149 C 236.187 104.888,235.763 96.666,231.916 91.667 C 229.129 88.045,223.294 85.000,219.142 85.000 C 217.814 85.000,217.846 85.028,221.057 86.664 C 223.844 88.083,225.500 89.068,225.500 89.305 C 225.500 89.628,224.709 90.095,221.333 91.766 C 219.383 92.731,217.854 93.580,217.935 93.652 C 218.017 93.724,218.608 93.906,219.250 94.057 C 227.634 96.028,228.050 104.616,220.085 111.299 C 216.146 114.603,213.748 116.034,207.731 118.669 C 202.005 121.177,198.441 124.320,194.319 130.496 C 189.669 137.465,185.946 138.358,177.679 134.485 C 163.081 127.647,152.637 111.912,151.583 95.167 C 151.523 94.204,151.452 93.079,151.426 92.667 C 151.183 88.811,152.286 81.777,153.975 76.417 C 154.843 73.663,157.627 67.797,158.920 66.000 C 159.217 65.587,159.772 64.737,160.153 64.111 C 165.314 55.637,176.131 48.098,187.917 44.759 C 192.511 43.457,194.993 41.568,196.686 38.083 C 200.188 30.878,194.712 22.283,187.250 23.275 M199.716 70.133 C 199.463 70.293,198.584 72.365,197.279 75.875 C 197.067 76.448,196.791 77.104,196.667 77.333 C 196.543 77.563,196.275 78.200,196.073 78.750 C 194.912 81.900,194.273 83.147,193.667 83.446 C 193.120 83.715,191.155 84.621,190.000 85.136 C 188.295 85.897,187.584 86.241,187.500 86.345 C 187.454 86.402,187.201 86.502,186.937 86.566 C 186.070 86.779,182.000 88.862,182.000 89.094 C 182.000 89.354,182.826 90.167,183.091 90.167 C 183.189 90.167,183.790 90.429,184.426 90.749 C 185.063 91.070,185.682 91.333,185.802 91.333 C 185.923 91.333,186.523 91.567,187.136 91.852 C 189.567 92.982,192.117 94.204,192.750 94.542 C 193.117 94.738,193.567 94.970,193.752 95.059 C 194.141 95.246,194.947 96.479,195.109 97.134 C 195.170 97.381,195.433 98.045,195.693 98.610 C 195.954 99.175,196.167 99.722,196.167 99.825 C 196.167 99.929,196.311 100.297,196.488 100.643 C 196.665 100.990,196.975 101.793,197.177 102.428 C 197.380 103.064,197.600 103.658,197.667 103.750 C 197.735 103.842,197.880 104.217,197.991 104.583 C 198.101 104.950,198.374 105.598,198.596 106.023 C 198.818 106.447,199.000 106.926,199.000 107.086 C 199.000 107.538,199.662 108.500,199.972 108.500 C 200.270 108.500,200.342 70.138,200.044 70.045 C 199.974 70.023,199.826 70.063,199.716 70.133 M161.881 86.446 C 161.675 87.187,161.743 93.258,161.976 94.917 C 162.858 101.196,165.083 107.412,167.675 110.833 C 173.755 118.859,179.442 123.172,188.094 126.315 C 191.165 127.431,191.128 127.434,192.111 126.042 C 193.937 123.454,195.372 121.897,197.500 120.195 C 198.063 119.745,197.976 119.696,195.804 119.238 C 182.753 116.481,173.269 107.459,171.208 95.841 C 171.082 95.134,171.003 95.050,169.580 94.101 C 167.361 92.623,164.644 89.834,163.405 87.764 C 162.322 85.952,162.078 85.741,161.881 86.446 M135.550 112.502 C 134.465 112.939,134.491 113.645,135.702 116.750 C 141.096 130.573,150.711 141.863,164.333 150.367 C 170.223 154.044,182.270 158.725,183.803 157.932 C 184.583 157.529,184.770 156.388,184.179 155.636 C 183.864 155.237,183.617 155.134,181.583 154.560 C 162.121 149.065,144.745 133.146,138.311 114.917 C 137.463 112.516,136.849 111.979,135.550 112.502 M126.565 169.512 C 122.555 170.021,120.886 172.454,121.259 177.250 C 121.652 182.314,122.930 183.006,132.083 183.108 C 139.908 183.196,140.082 183.260,139.974 186.018 C 139.867 188.750,140.076 188.693,130.121 188.704 C 125.792 188.709,122.081 188.775,121.875 188.852 C 121.436 189.016,121.285 192.718,121.700 193.133 C 122.017 193.450,138.865 193.409,140.380 193.088 C 144.062 192.308,145.715 188.911,144.845 183.912 C 144.135 179.837,142.619 179.196,133.638 179.172 C 126.605 179.154,126.167 179.005,126.167 176.637 C 126.167 173.892,126.022 173.935,135.583 173.833 C 139.892 173.787,143.510 173.689,143.625 173.615 C 143.967 173.394,143.915 169.567,143.568 169.434 C 143.185 169.287,127.779 169.358,126.565 169.512 M150.860 169.625 C 150.777 169.785,150.722 170.779,150.738 171.833 C 150.782 174.716,150.890 174.552,148.822 174.750 L 147.083 174.917 147.035 176.458 C 146.968 178.622,147.004 178.667,148.819 178.667 C 150.782 178.667,150.679 178.453,150.674 182.542 C 150.663 191.839,151.517 193.132,157.773 193.296 C 161.351 193.389,161.333 193.399,161.333 191.270 C 161.333 189.529,161.369 189.556,159.000 189.466 C 155.373 189.327,155.265 189.157,155.205 183.500 C 155.178 180.924,155.225 179.152,155.324 179.000 C 155.454 178.801,156.039 178.733,158.202 178.667 L 160.917 178.583 161.000 177.667 C 161.046 177.162,161.046 176.338,161.000 175.833 L 160.917 174.917 158.317 174.833 C 154.965 174.726,155.167 174.906,155.167 172.013 C 155.167 170.462,155.103 169.669,154.967 169.533 C 154.617 169.184,151.048 169.263,150.860 169.625 M210.422 169.542 C 210.384 169.656,210.328 170.780,210.297 172.038 C 210.230 174.750,210.293 174.660,208.400 174.772 C 206.322 174.894,206.481 174.722,206.536 176.789 L 206.583 178.583 208.193 178.631 C 210.403 178.696,210.232 178.244,210.346 184.317 C 210.449 189.769,210.480 189.986,211.365 191.288 C 212.398 192.808,214.039 193.333,217.752 193.333 C 220.821 193.333,220.703 193.424,220.631 191.124 L 220.583 189.583 218.583 189.495 C 214.786 189.328,214.708 189.207,214.639 183.397 C 214.577 178.205,214.299 178.667,217.489 178.667 C 220.632 178.667,220.527 178.740,220.465 176.581 L 220.417 174.917 217.787 174.823 C 214.495 174.705,214.709 174.900,214.603 171.917 C 214.558 170.633,214.516 169.527,214.510 169.458 C 214.491 169.229,210.497 169.311,210.422 169.542 M170.329 174.843 C 167.420 175.272,165.663 176.554,165.061 178.691 C 164.745 179.808,164.721 192.747,165.033 193.124 C 165.169 193.287,165.690 193.332,167.066 193.297 L 168.917 193.250 169.003 187.167 C 169.099 180.485,169.136 180.234,170.126 179.529 C 171.139 178.808,171.448 178.762,175.917 178.671 L 180.250 178.583 180.250 176.758 C 180.250 174.952,180.245 174.930,179.833 174.816 C 179.254 174.655,171.455 174.677,170.329 174.843 M183.559 175.039 C 183.376 175.335,183.480 178.214,183.681 178.415 C 183.787 178.520,186.448 178.614,190.813 178.667 L 197.777 178.750 198.406 179.230 C 199.486 180.054,200.020 182.489,199.125 182.508 C 198.919 182.512,196.094 182.547,192.847 182.585 C 185.458 182.672,184.805 182.784,183.620 184.169 C 182.137 185.901,182.246 190.587,183.804 192.105 C 184.947 193.218,185.031 193.227,194.438 193.293 L 202.959 193.352 203.412 192.963 C 204.094 192.376,204.160 191.636,204.067 185.542 C 203.992 180.644,203.945 179.891,203.661 179.066 C 202.882 176.803,201.586 175.631,199.267 175.093 C 197.784 174.749,183.768 174.701,183.559 175.039 M199.333 185.441 C 200.174 186.243,199.450 189.219,198.318 189.616 C 197.422 189.929,188.833 189.907,188.072 189.589 C 186.643 188.992,186.662 186.244,188.100 185.500 C 189.030 185.019,198.837 184.967,199.333 185.441 " stroke="none" fill="#0bd8dc" fill-rule="evenodd"></path><path id="path2" d="M185.667 22.927 C 183.700 23.279,180.947 23.984,178.500 24.762 C 174.769 25.948,174.608 26.008,171.167 27.515 C 169.437 28.272,165.870 30.113,165.369 30.508 C 165.141 30.687,164.889 30.833,164.807 30.833 C 164.726 30.833,164.342 31.034,163.955 31.278 C 163.567 31.523,162.987 31.889,162.667 32.092 C 160.856 33.236,158.642 34.723,157.765 35.384 C 157.201 35.809,155.503 37.173,155.234 37.417 C 155.132 37.508,154.317 38.221,153.422 39.000 C 150.735 41.339,149.234 42.891,146.447 46.216 C 146.155 46.564,145.767 47.027,145.583 47.244 C 145.400 47.462,145.063 47.870,144.833 48.151 C 144.604 48.433,144.260 48.835,144.069 49.046 C 143.878 49.257,143.431 49.877,143.074 50.423 C 142.718 50.970,142.350 51.533,142.255 51.675 C 142.161 51.817,141.933 52.181,141.750 52.485 C 141.567 52.788,141.249 53.272,141.044 53.560 C 140.839 53.848,140.588 54.290,140.486 54.542 C 140.384 54.794,140.233 55.000,140.150 55.000 C 140.068 55.000,140.000 55.095,140.000 55.212 C 140.000 55.329,139.736 55.825,139.413 56.316 C 138.440 57.793,136.500 61.736,136.500 62.237 C 136.500 62.382,136.431 62.500,136.347 62.500 C 136.263 62.500,136.070 62.856,135.918 63.292 C 135.766 63.727,135.429 64.533,135.169 65.083 C 133.704 68.179,134.216 70.167,136.479 70.167 C 137.452 70.167,138.020 69.603,138.669 67.995 C 138.966 67.257,139.173 66.617,139.128 66.573 C 139.038 66.482,138.170 68.409,138.161 68.719 C 138.108 70.616,134.500 70.023,134.500 68.117 C 134.500 67.617,135.639 64.446,136.487 62.583 C 143.889 46.336,157.408 33.100,172.833 26.998 C 187.333 21.263,193.509 21.662,197.037 28.561 C 200.097 34.544,195.761 43.533,189.232 44.740 C 185.641 45.404,178.168 48.399,175.641 50.187 C 175.398 50.359,175.164 50.500,175.122 50.500 C 175.080 50.500,174.464 50.894,173.753 51.375 C 173.042 51.856,172.337 52.325,172.186 52.417 C 171.529 52.816,170.667 53.554,170.667 53.718 C 170.667 53.816,170.873 53.700,171.125 53.461 C 171.556 53.053,173.286 51.833,173.435 51.833 C 173.472 51.833,173.813 51.608,174.193 51.333 C 174.573 51.058,174.948 50.833,175.027 50.833 C 175.106 50.833,175.601 50.541,176.127 50.183 C 177.425 49.300,181.021 47.539,182.750 46.939 C 183.117 46.812,183.754 46.590,184.167 46.446 C 185.738 45.897,188.109 45.189,188.717 45.088 C 190.432 44.801,193.399 43.125,194.865 41.614 C 195.489 40.971,197.000 38.920,197.000 38.716 C 197.000 38.661,197.195 38.204,197.432 37.701 C 198.506 35.433,198.512 31.322,197.446 28.917 C 195.319 24.118,191.072 21.958,185.667 22.927 M183.917 27.332 C 179.972 28.329,178.387 28.828,175.083 30.113 C 173.312 30.802,168.375 33.219,166.833 34.153 C 164.971 35.280,163.958 35.908,163.581 36.167 C 163.381 36.304,162.662 36.790,161.983 37.247 C 161.305 37.703,160.375 38.365,159.917 38.717 C 159.458 39.069,158.708 39.641,158.250 39.989 C 157.792 40.336,156.442 41.519,155.250 42.619 C 153.390 44.335,152.441 45.310,150.196 47.818 C 149.983 48.055,149.191 49.038,148.437 50.000 C 146.991 51.845,144.943 54.839,145.815 53.833 C 146.093 53.512,146.474 53.079,146.660 52.869 C 146.847 52.660,147.000 52.430,147.000 52.360 C 147.000 52.289,147.206 51.983,147.458 51.679 C 147.710 51.375,148.203 50.705,148.553 50.188 C 149.761 48.407,157.628 40.333,158.156 40.333 C 158.225 40.333,158.424 40.176,158.599 39.983 C 158.773 39.790,159.141 39.517,159.416 39.376 C 159.691 39.236,160.149 38.925,160.432 38.685 C 160.715 38.446,161.119 38.137,161.328 38.000 C 161.538 37.862,162.411 37.244,163.270 36.625 C 164.128 36.006,164.876 35.500,164.931 35.500 C 164.987 35.500,165.242 35.351,165.498 35.168 C 166.321 34.582,174.027 30.670,174.375 30.661 C 174.490 30.659,174.958 30.472,175.417 30.246 C 175.875 30.021,176.362 29.834,176.500 29.831 C 176.637 29.828,177.088 29.671,177.500 29.482 C 178.196 29.162,181.692 28.161,183.271 27.829 C 183.649 27.750,184.459 27.523,185.071 27.325 C 187.480 26.547,189.955 28.150,190.334 30.735 C 190.455 31.557,190.459 31.563,190.478 30.917 C 190.521 29.415,189.258 27.671,187.733 27.124 C 186.671 26.744,186.126 26.773,183.917 27.332 M189.878 32.436 C 189.144 34.062,188.564 34.432,185.480 35.243 C 183.979 35.637,182.375 36.091,181.917 36.250 C 181.458 36.409,180.446 36.760,179.667 37.029 C 177.888 37.645,175.847 38.543,175.839 38.712 C 175.836 38.782,176.152 38.677,176.542 38.477 C 177.712 37.878,182.587 36.244,185.167 35.586 C 188.664 34.695,190.580 33.311,190.301 31.877 C 190.273 31.730,190.086 31.977,189.878 32.436 M174.932 38.975 C 174.884 39.053,174.493 39.251,174.063 39.416 C 173.633 39.580,172.825 39.978,172.266 40.300 C 171.707 40.622,170.845 41.098,170.349 41.357 C 169.853 41.616,169.328 41.928,169.182 42.049 C 169.036 42.170,168.729 42.350,168.500 42.449 C 168.136 42.607,163.810 45.716,162.667 46.642 C 160.502 48.394,158.006 50.859,155.398 53.819 C 155.041 54.223,154.563 54.758,154.333 55.008 C 152.101 57.444,148.545 63.100,146.769 67.042 C 146.009 68.728,146.458 68.069,147.506 65.958 C 148.622 63.714,148.925 63.198,151.256 59.583 C 153.995 55.336,159.507 49.360,163.585 46.218 C 165.608 44.659,166.192 44.245,168.645 42.634 C 169.811 41.868,171.773 40.775,173.792 39.767 C 174.640 39.343,175.333 38.960,175.333 38.915 C 175.333 38.778,175.025 38.824,174.932 38.975 M195.653 46.351 C 192.509 49.273,192.052 49.553,185.750 52.420 C 185.292 52.628,184.354 53.050,183.667 53.357 C 182.249 53.990,178.622 56.004,178.182 56.403 C 178.022 56.548,177.821 56.668,177.737 56.670 C 176.697 56.693,170.571 62.300,168.833 64.819 C 168.512 65.284,168.079 65.871,167.871 66.124 C 167.662 66.377,167.448 66.752,167.394 66.958 C 167.341 67.165,167.238 67.333,167.165 67.333 C 166.900 67.333,166.149 68.839,165.088 71.500 C 163.982 74.271,163.998 80.905,165.114 82.579 C 165.235 82.760,165.333 83.014,165.333 83.143 C 165.333 83.477,166.586 85.927,167.257 86.905 C 168.409 88.585,170.891 90.756,172.750 91.710 C 174.136 92.422,175.400 92.969,175.922 93.085 C 176.194 93.146,176.710 93.305,177.069 93.440 C 178.404 93.943,181.812 94.370,181.588 94.007 C 181.519 93.896,181.330 93.839,181.167 93.881 C 180.234 94.126,176.056 93.035,173.900 91.986 C 169.389 89.788,166.854 86.995,165.291 82.500 C 164.748 80.938,164.586 80.058,164.430 77.809 C 164.206 74.573,165.523 69.885,167.419 67.167 C 170.158 63.241,172.341 60.938,176.167 57.938 C 178.053 56.459,181.165 54.763,186.841 52.122 C 191.791 49.818,193.520 48.760,195.329 46.928 C 196.666 45.574,196.860 45.229,195.653 46.351 M169.333 54.545 C 167.479 56.037,163.613 60.043,162.064 62.078 C 160.369 64.306,159.315 65.861,159.742 65.507 C 159.903 65.373,160.297 64.849,160.619 64.341 C 161.151 63.500,162.451 61.837,163.749 60.337 C 164.556 59.403,168.324 55.667,169.501 54.633 C 170.858 53.441,170.765 53.393,169.333 54.545 M144.591 55.376 C 144.412 55.673,144.082 56.217,143.858 56.583 C 143.635 56.950,143.077 57.962,142.620 58.833 C 142.162 59.704,141.665 60.604,141.514 60.833 C 141.364 61.063,140.991 61.813,140.685 62.500 C 140.379 63.188,139.911 64.224,139.643 64.804 C 139.376 65.384,139.218 65.821,139.292 65.776 C 139.366 65.730,139.621 65.255,139.860 64.721 C 140.098 64.187,140.416 63.487,140.565 63.167 C 141.058 62.111,143.184 58.099,143.680 57.289 C 143.948 56.852,144.167 56.436,144.167 56.364 C 144.167 56.291,144.398 55.918,144.681 55.533 C 144.964 55.148,145.133 54.834,145.056 54.834 C 144.979 54.835,144.770 55.079,144.591 55.376 M194.507 59.355 C 193.823 59.709,192.398 60.329,191.339 60.734 C 177.495 66.030,170.261 76.536,176.571 82.182 C 177.704 83.196,180.855 84.512,182.083 84.485 L 182.417 84.477 182.083 84.342 C 181.900 84.268,181.160 84.070,180.439 83.904 C 179.718 83.738,178.968 83.476,178.773 83.324 C 178.577 83.171,178.112 82.891,177.739 82.702 C 175.160 81.393,173.842 77.993,174.770 75.043 C 175.692 72.112,178.332 68.700,181.500 66.347 C 182.188 65.836,182.975 65.249,183.250 65.043 C 183.525 64.837,184.066 64.515,184.451 64.329 C 184.837 64.143,185.199 63.916,185.256 63.824 C 185.396 63.597,189.053 61.859,191.000 61.095 C 193.799 59.995,195.211 59.366,195.652 59.021 C 196.295 58.520,195.899 58.636,194.507 59.355 M159.024 66.368 C 158.832 66.670,158.603 67.029,158.517 67.167 C 158.065 67.882,156.523 70.843,156.281 71.458 C 155.882 72.474,156.088 72.331,156.642 71.208 C 156.903 70.681,157.361 69.800,157.660 69.250 C 157.960 68.700,158.356 67.950,158.541 67.583 C 158.725 67.217,159.025 66.706,159.206 66.449 C 159.388 66.191,159.500 65.944,159.456 65.900 C 159.411 65.855,159.217 66.066,159.024 66.368 M145.512 69.943 C 145.052 70.905,143.907 74.076,143.745 74.833 C 143.716 74.971,143.576 75.533,143.434 76.083 C 141.892 82.059,141.445 85.380,141.429 91.000 C 141.411 97.443,142.106 103.301,143.209 106.000 C 143.530 106.785,143.523 106.734,143.013 104.583 C 141.477 98.096,141.127 89.156,142.172 83.083 C 142.377 81.892,142.544 80.804,142.542 80.667 C 142.539 80.419,143.035 78.384,143.334 77.417 C 143.420 77.142,143.530 76.674,143.580 76.377 C 143.630 76.081,143.870 75.218,144.115 74.461 C 144.359 73.703,144.580 72.968,144.606 72.827 C 144.632 72.686,144.859 72.123,145.110 71.577 C 145.360 71.030,145.577 70.470,145.591 70.331 C 145.606 70.192,145.746 69.829,145.904 69.524 C 146.062 69.219,146.159 68.936,146.119 68.897 C 146.079 68.857,145.806 69.328,145.512 69.943 M155.710 72.667 C 155.619 72.896,155.375 73.496,155.168 74.000 C 154.243 76.262,152.856 80.911,153.049 81.105 C 153.131 81.187,153.835 78.851,153.834 78.499 C 153.834 78.361,154.028 77.724,154.265 77.083 C 154.503 76.441,154.755 75.729,154.826 75.500 C 154.897 75.271,155.192 74.527,155.482 73.847 C 155.772 73.167,155.979 72.529,155.943 72.430 C 155.907 72.331,155.802 72.438,155.710 72.667 M152.654 82.375 C 152.647 82.581,152.615 82.900,152.582 83.083 C 151.795 87.447,151.521 91.701,151.812 95.033 C 152.000 97.186,152.457 100.182,152.621 100.333 C 152.670 100.379,152.665 100.154,152.609 99.833 C 152.553 99.513,152.464 98.763,152.411 98.167 C 152.359 97.571,152.237 96.671,152.140 96.167 C 151.729 94.015,151.917 87.980,152.477 85.368 C 152.703 84.316,152.906 82.000,152.773 82.000 C 152.715 82.000,152.661 82.169,152.654 82.375 M161.743 84.344 C 161.683 84.442,161.678 84.567,161.733 84.622 C 161.788 84.677,161.833 84.635,161.833 84.528 C 161.833 84.421,161.921 84.333,162.028 84.333 C 162.135 84.333,162.173 84.382,162.114 84.442 C 161.988 84.567,163.661 87.803,164.297 88.667 C 165.849 90.771,168.459 93.172,170.462 94.336 C 171.431 94.900,171.463 94.941,171.564 95.750 C 171.622 96.208,171.708 96.866,171.755 97.212 C 172.148 100.060,175.038 105.904,177.061 107.942 C 177.257 108.139,177.829 108.764,178.333 109.332 C 179.194 110.302,181.403 112.259,182.333 112.877 C 182.563 113.029,183.162 113.453,183.667 113.820 C 184.171 114.186,184.771 114.591,185.000 114.718 C 185.821 115.176,188.751 116.681,188.795 116.667 C 188.819 116.660,189.187 116.807,189.612 116.995 C 190.037 117.184,190.417 117.305,190.456 117.266 C 190.495 117.227,190.240 117.066,189.889 116.908 C 187.344 115.764,185.522 114.801,184.107 113.852 C 183.203 113.246,182.340 112.673,182.190 112.579 C 181.481 112.137,176.833 107.612,176.833 107.364 C 176.833 107.288,176.646 107.049,176.417 106.833 C 176.188 106.618,176.000 106.354,176.000 106.247 C 176.000 106.139,175.850 105.916,175.667 105.750 C 175.483 105.584,175.333 105.354,175.333 105.238 C 175.333 105.122,175.277 105.003,175.208 104.972 C 175.036 104.896,173.989 102.799,173.995 102.542 C 173.998 102.427,173.934 102.333,173.853 102.333 C 173.772 102.333,173.540 101.902,173.339 101.375 C 173.137 100.848,172.833 100.079,172.663 99.667 C 172.396 99.019,172.239 98.393,172.079 97.333 C 171.714 94.916,171.584 94.596,170.833 94.265 C 170.204 93.987,169.000 93.142,169.000 92.978 C 169.000 92.898,168.884 92.833,168.743 92.833 C 168.519 92.833,165.667 90.128,165.667 89.916 C 165.667 89.872,165.521 89.667,165.343 89.460 C 165.166 89.253,164.866 88.903,164.677 88.683 C 164.488 88.463,164.333 88.212,164.333 88.126 C 164.333 88.040,164.191 87.846,164.018 87.693 C 163.710 87.423,162.682 85.539,162.344 84.625 C 162.168 84.149,161.932 84.039,161.743 84.344 M217.412 84.507 C 217.376 84.566,217.849 84.629,218.465 84.646 C 219.080 84.663,219.996 84.748,220.500 84.834 C 221.004 84.920,221.678 85.034,221.998 85.088 C 225.538 85.683,230.342 88.814,232.513 91.941 C 233.795 93.788,235.167 97.051,235.203 98.339 C 235.211 98.617,235.293 98.892,235.384 98.948 C 235.731 99.162,234.818 95.491,234.320 94.667 C 234.237 94.529,233.903 93.929,233.577 93.333 C 232.489 91.342,232.428 91.253,231.371 90.080 C 231.121 89.803,230.469 89.240,229.923 88.830 C 229.376 88.419,228.795 87.952,228.631 87.792 C 228.467 87.631,228.253 87.500,228.155 87.500 C 228.057 87.500,227.650 87.275,227.250 87.000 C 226.850 86.725,226.409 86.500,226.270 86.500 C 226.131 86.500,225.957 86.401,225.883 86.280 C 225.733 86.031,224.046 85.336,222.667 84.955 C 221.378 84.599,217.557 84.273,217.412 84.507 M216.569 84.989 C 216.907 85.257,217.404 85.526,217.673 85.585 C 217.943 85.644,218.202 85.756,218.250 85.834 C 218.298 85.912,219.593 86.590,221.127 87.342 C 222.661 88.094,224.128 88.859,224.387 89.042 L 224.858 89.374 224.471 89.600 C 224.258 89.724,223.708 90.006,223.250 90.226 C 221.736 90.953,219.755 91.929,219.417 92.115 C 218.850 92.425,218.090 92.726,217.953 92.694 C 217.882 92.677,217.732 92.745,217.620 92.844 C 217.508 92.944,217.122 93.188,216.763 93.388 C 215.746 93.951,215.831 94.117,217.200 94.243 C 218.660 94.378,220.554 94.968,222.014 95.743 C 226.066 97.895,226.355 103.656,222.625 107.917 C 222.464 108.100,222.002 108.625,221.597 109.083 C 221.192 109.541,220.898 109.953,220.943 109.998 C 221.037 110.092,222.246 108.728,223.291 107.350 C 227.854 101.335,225.067 94.748,217.667 94.061 C 216.286 93.932,216.230 93.824,217.309 93.360 C 218.803 92.717,225.250 89.497,225.290 89.373 C 225.342 89.214,224.661 88.840,220.333 86.655 C 218.362 85.660,216.659 84.768,216.549 84.673 C 216.438 84.578,216.259 84.500,216.151 84.500 C 216.043 84.500,216.231 84.720,216.569 84.989 M161.500 85.510 C 161.500 85.699,161.575 85.807,161.667 85.750 C 161.758 85.693,161.833 85.539,161.833 85.407 C 161.833 85.275,161.758 85.167,161.667 85.167 C 161.575 85.167,161.500 85.321,161.500 85.510 M179.917 86.425 C 175.630 88.555,174.633 89.086,174.635 89.237 C 174.637 89.540,182.057 93.171,182.330 93.002 C 182.422 92.945,181.899 92.653,181.166 92.353 C 180.433 92.054,179.833 91.739,179.833 91.654 C 179.833 91.569,179.749 91.500,179.647 91.500 C 179.392 91.500,176.580 90.226,175.704 89.714 L 174.991 89.297 175.371 88.966 C 175.747 88.637,177.381 87.831,178.500 87.422 C 178.821 87.305,179.496 86.965,180.000 86.667 C 180.504 86.369,181.011 86.111,181.127 86.094 C 181.242 86.077,181.426 85.974,181.535 85.865 C 181.644 85.756,181.826 85.667,181.940 85.667 C 182.054 85.667,182.193 85.592,182.250 85.500 C 182.431 85.206,182.127 85.327,179.917 86.425 M161.539 86.500 C 161.539 86.821,161.573 86.952,161.615 86.792 C 161.657 86.631,161.657 86.369,161.615 86.208 C 161.573 86.048,161.539 86.179,161.539 86.500 M161.266 88.401 C 161.031 90.006,161.381 95.833,161.712 95.833 C 161.818 95.833,161.831 95.543,161.750 95.042 C 161.679 94.606,161.574 92.712,161.516 90.833 C 161.428 87.983,161.387 87.580,161.266 88.401 M161.682 96.417 C 161.677 96.692,161.787 97.404,161.925 98.000 C 162.063 98.596,162.316 99.726,162.487 100.511 C 162.658 101.297,162.947 102.272,163.129 102.678 C 163.311 103.084,163.513 103.604,163.577 103.833 C 163.729 104.376,164.314 105.667,164.408 105.667 C 164.449 105.667,164.346 105.310,164.181 104.875 C 163.283 102.509,162.915 101.240,162.112 97.750 C 161.880 96.742,161.687 96.142,161.682 96.417 M235.381 99.917 C 235.382 100.375,235.415 100.543,235.453 100.289 C 235.491 100.036,235.490 99.661,235.451 99.456 C 235.411 99.251,235.380 99.458,235.381 99.917 M152.667 101.424 C 152.667 101.712,153.549 104.673,153.615 104.607 C 153.652 104.570,153.485 103.837,153.244 102.978 C 152.835 101.524,152.667 101.070,152.667 101.424 M235.379 103.000 C 235.379 103.412,235.411 103.581,235.451 103.375 C 235.491 103.169,235.491 102.831,235.451 102.625 C 235.411 102.419,235.379 102.587,235.379 103.000 M235.263 104.542 C 235.204 104.931,234.978 105.756,234.760 106.375 C 234.543 106.994,234.416 107.500,234.478 107.500 C 234.613 107.500,235.301 105.331,235.442 104.457 C 235.498 104.114,235.505 103.833,235.457 103.833 C 235.410 103.833,235.323 104.152,235.263 104.542 M153.909 106.098 C 153.982 106.273,154.210 106.942,154.415 107.583 C 154.828 108.880,155.502 110.387,155.617 110.272 C 155.658 110.231,155.580 109.983,155.445 109.721 C 155.309 109.458,154.961 108.515,154.672 107.625 C 154.382 106.735,154.063 105.955,153.961 105.893 C 153.836 105.815,153.819 105.880,153.909 106.098 M164.500 106.035 C 164.500 106.279,165.296 107.833,165.422 107.833 C 165.479 107.833,164.678 105.988,164.559 105.847 C 164.526 105.809,164.500 105.893,164.500 106.035 M143.333 106.961 C 143.333 107.062,143.407 107.339,143.498 107.577 C 143.588 107.814,143.694 108.175,143.734 108.379 C 143.774 108.583,143.925 109.078,144.070 109.479 C 144.215 109.880,144.333 110.306,144.333 110.426 C 144.333 110.546,144.550 111.117,144.814 111.697 C 145.078 112.276,145.449 113.106,145.638 113.542 C 145.827 113.977,146.013 114.333,146.052 114.333 C 146.132 114.333,145.528 112.587,145.102 111.589 C 144.947 111.225,144.518 110.026,144.148 108.924 C 143.492 106.969,143.333 106.587,143.333 106.961 M233.822 108.878 C 233.217 110.153,231.940 112.248,231.664 112.418 C 231.574 112.474,231.500 112.588,231.500 112.671 C 231.500 112.754,231.725 112.602,232.000 112.333 C 232.275 112.065,232.500 111.779,232.500 111.698 C 232.500 111.618,232.679 111.344,232.897 111.089 C 233.291 110.632,234.582 107.859,234.459 107.736 C 234.424 107.701,234.137 108.215,233.822 108.878 M165.685 108.625 C 165.893 108.969,166.143 109.398,166.240 109.579 C 166.412 109.899,166.897 110.602,167.907 111.992 C 168.177 112.363,168.473 112.667,168.565 112.667 C 168.657 112.667,168.505 112.423,168.227 112.125 C 167.732 111.595,165.962 108.862,165.742 108.289 C 165.681 108.130,165.558 108.000,165.469 108.000 C 165.379 108.000,165.477 108.281,165.685 108.625 M219.819 110.848 C 219.415 111.223,218.708 111.803,218.250 112.137 C 217.792 112.472,217.267 112.881,217.084 113.048 C 216.901 113.215,216.376 113.584,215.917 113.868 C 215.459 114.152,214.821 114.551,214.500 114.755 C 213.408 115.450,208.891 117.667,208.568 117.667 C 208.503 117.667,208.037 117.869,207.531 118.116 C 206.370 118.684,206.672 118.830,207.864 118.276 C 209.679 117.434,211.344 116.679,211.462 116.644 C 211.529 116.625,211.943 116.397,212.382 116.138 C 212.822 115.879,213.223 115.667,213.274 115.667 C 213.325 115.667,213.828 115.386,214.392 115.042 C 215.379 114.441,215.637 114.269,217.434 113.013 C 218.345 112.376,220.833 110.343,220.833 110.236 C 220.833 110.026,220.472 110.244,219.819 110.848 M155.778 111.125 C 156.045 111.764,157.307 114.251,158.127 115.754 C 158.773 116.938,160.047 118.833,160.197 118.833 C 160.403 118.833,160.161 118.367,159.904 118.268 C 159.773 118.218,159.667 118.068,159.667 117.934 C 159.667 117.800,159.552 117.576,159.411 117.435 C 158.927 116.951,155.833 111.124,155.833 110.697 C 155.833 110.588,155.762 110.500,155.675 110.500 C 155.588 110.500,155.634 110.781,155.778 111.125 M135.333 112.019 C 134.322 112.405,134.009 113.468,134.478 114.923 C 135.075 116.776,135.778 118.459,137.314 121.708 C 138.054 123.274,138.421 123.743,137.770 122.292 C 137.555 121.810,137.247 121.117,137.087 120.750 C 136.926 120.383,136.618 119.708,136.403 119.250 C 135.317 116.944,134.332 114.050,134.443 113.494 C 134.807 111.676,137.772 111.557,138.087 113.348 C 138.129 113.586,138.377 114.298,138.638 114.932 C 138.900 115.565,139.117 116.143,139.122 116.216 C 139.140 116.475,141.235 120.933,141.919 122.167 C 143.310 124.674,143.574 125.117,144.801 127.000 C 146.004 128.845,147.435 130.849,148.325 131.935 C 148.559 132.219,148.893 132.632,149.069 132.851 C 152.098 136.641,157.740 141.882,161.833 144.709 C 166.903 148.211,170.644 150.197,176.833 152.672 C 177.580 152.971,179.921 153.727,182.715 154.572 C 184.362 155.070,184.832 155.541,184.833 156.696 C 184.833 157.400,184.209 158.269,183.619 158.383 C 183.305 158.444,183.317 158.458,183.702 158.477 C 184.988 158.542,185.610 156.044,184.535 155.131 C 184.132 154.789,182.746 154.243,181.667 154.001 C 181.162 153.889,180.173 153.580,179.467 153.315 C 178.761 153.050,178.086 152.834,177.967 152.834 C 177.467 152.836,173.482 151.118,171.833 150.189 C 171.696 150.112,170.608 149.571,169.417 148.988 C 167.166 147.887,163.688 145.844,163.331 145.414 C 163.218 145.278,163.062 145.167,162.984 145.167 C 162.827 145.167,160.315 143.310,159.668 142.715 C 159.440 142.505,159.192 142.333,159.118 142.333 C 158.715 142.333,153.730 137.732,151.715 135.500 C 150.845 134.537,149.925 133.525,149.668 133.250 C 149.412 132.975,148.898 132.337,148.526 131.833 C 148.154 131.329,147.781 130.838,147.699 130.741 C 147.616 130.645,147.331 130.232,147.066 129.824 C 146.800 129.417,146.526 129.058,146.455 129.027 C 146.384 128.995,146.204 128.733,146.055 128.443 C 145.906 128.154,145.645 127.819,145.475 127.699 C 145.305 127.579,145.167 127.402,145.167 127.306 C 145.167 127.210,144.942 126.847,144.667 126.500 C 144.392 126.153,144.167 125.822,144.167 125.764 C 144.167 125.707,143.991 125.380,143.775 125.038 C 143.373 124.398,141.227 120.318,140.206 118.250 C 139.786 117.400,138.167 113.024,138.167 112.740 C 138.167 112.191,136.195 111.689,135.333 112.019 M168.900 113.375 C 169.137 113.673,169.535 114.179,169.785 114.500 C 170.284 115.142,173.060 117.938,173.586 118.330 C 173.768 118.465,173.190 117.837,172.303 116.934 C 171.415 116.031,170.253 114.743,169.720 114.072 C 169.186 113.400,168.687 112.847,168.610 112.842 C 168.533 112.837,168.664 113.077,168.900 113.375 M231.167 113.135 C 231.167 113.669,226.668 118.221,224.750 119.627 C 223.925 120.232,222.989 120.919,222.669 121.155 C 222.041 121.619,220.786 122.452,220.250 122.762 C 219.688 123.087,217.932 124.148,217.667 124.323 C 217.529 124.414,217.792 124.331,218.250 124.138 C 218.708 123.946,219.671 123.386,220.388 122.894 C 221.106 122.402,221.739 122.000,221.794 122.000 C 221.850 122.000,222.050 121.857,222.239 121.683 C 222.428 121.509,222.862 121.211,223.202 121.023 C 223.542 120.834,223.955 120.564,224.119 120.423 C 224.282 120.282,225.017 119.670,225.750 119.063 C 228.055 117.154,231.887 113.000,231.343 113.000 C 231.246 113.000,231.167 113.061,231.167 113.135 M146.178 114.618 C 146.167 114.821,147.425 117.776,147.653 118.083 C 147.722 118.175,147.879 118.513,148.004 118.833 C 148.129 119.154,148.629 120.002,149.115 120.718 C 149.602 121.434,150.000 122.072,150.001 122.135 C 150.001 122.198,150.190 122.475,150.420 122.750 L 150.839 123.250 150.414 122.423 C 150.180 121.968,149.933 121.556,149.865 121.506 C 149.537 121.268,147.768 117.882,146.379 114.833 C 146.275 114.604,146.184 114.507,146.178 114.618 M192.000 117.855 C 192.779 118.131,193.867 118.460,194.417 118.586 C 197.781 119.354,198.313 119.448,198.523 119.315 C 198.689 119.211,198.646 119.171,198.368 119.169 C 198.157 119.168,197.520 119.057,196.951 118.923 C 196.382 118.789,195.242 118.521,194.417 118.327 C 193.592 118.132,192.507 117.830,192.006 117.653 C 191.505 117.477,190.980 117.337,190.839 117.342 C 190.698 117.348,191.221 117.578,192.000 117.855 M174.083 118.832 C 174.139 118.924,174.350 119.085,174.551 119.190 C 174.914 119.381,174.914 119.379,174.599 119.024 C 174.281 118.666,173.890 118.521,174.083 118.832 M205.250 119.270 C 204.700 119.583,204.081 119.925,203.875 120.030 C 203.669 120.134,203.500 120.292,203.500 120.380 C 203.500 120.469,203.669 120.419,203.875 120.270 C 204.081 120.122,204.662 119.778,205.167 119.507 C 206.259 118.919,206.643 118.667,206.417 118.686 C 206.325 118.693,205.800 118.956,205.250 119.270 M160.863 119.958 C 163.561 123.617,167.165 127.296,170.214 129.505 C 170.653 129.823,171.212 130.233,171.457 130.417 C 173.539 131.978,177.609 134.213,180.333 135.291 C 185.786 137.448,190.214 136.270,193.020 131.917 C 193.800 130.706,195.420 128.267,196.121 127.246 C 196.878 126.145,198.813 124.190,200.969 122.350 C 202.785 120.799,202.565 120.831,200.616 122.401 C 198.301 124.265,194.333 128.693,194.333 129.412 C 194.333 129.468,194.192 129.717,194.020 129.965 C 193.847 130.213,193.349 130.961,192.913 131.626 C 190.480 135.339,186.842 136.869,182.920 135.828 C 180.760 135.255,176.019 133.268,175.742 132.820 C 175.690 132.736,175.526 132.667,175.378 132.667 C 175.230 132.667,174.966 132.536,174.789 132.377 C 174.613 132.218,174.142 131.899,173.743 131.669 C 169.390 129.162,164.779 124.868,161.078 119.875 C 160.721 119.394,160.367 119.000,160.292 119.000 C 160.217 119.000,160.474 119.431,160.863 119.958 M175.000 119.459 C 175.000 119.551,175.112 119.719,175.250 119.833 C 175.389 119.949,175.500 119.967,175.500 119.874 C 175.500 119.782,175.387 119.614,175.250 119.500 C 175.111 119.384,175.000 119.366,175.000 119.459 M198.167 120.023 C 197.846 120.218,196.679 121.286,195.574 122.397 C 193.833 124.147,193.095 125.081,191.792 127.185 C 191.466 127.712,190.663 127.646,188.792 126.940 C 188.173 126.706,187.667 126.587,187.667 126.674 C 187.667 126.762,187.777 126.833,187.912 126.833 C 188.047 126.833,188.591 127.026,189.120 127.261 C 189.650 127.496,190.421 127.728,190.833 127.776 L 191.583 127.863 192.498 126.473 C 193.545 124.883,194.818 123.323,195.667 122.592 C 195.987 122.315,196.489 121.844,196.780 121.544 C 197.072 121.245,197.372 120.999,197.447 120.997 C 197.522 120.996,197.878 120.696,198.238 120.331 C 198.986 119.571,198.977 119.530,198.167 120.023 M175.952 120.304 C 176.116 120.471,176.813 120.970,177.500 121.413 C 178.188 121.856,178.825 122.306,178.917 122.413 C 179.093 122.619,180.801 123.615,182.333 124.407 C 182.838 124.667,183.175 124.803,183.083 124.709 C 182.992 124.615,182.404 124.265,181.778 123.931 C 181.152 123.597,180.439 123.187,180.195 123.021 C 179.950 122.855,179.262 122.394,178.667 121.997 C 176.636 120.643,176.175 120.316,176.078 120.158 C 176.024 120.071,175.907 120.000,175.817 120.000 C 175.727 120.000,175.788 120.137,175.952 120.304 M138.407 123.868 C 138.911 125.073,141.299 128.924,141.450 128.773 C 141.493 128.729,141.379 128.481,141.196 128.221 C 141.013 127.962,140.653 127.412,140.397 127.000 C 139.937 126.259,139.816 126.046,138.927 124.417 C 138.349 123.357,138.072 123.065,138.407 123.868 M151.017 123.708 C 151.206 124.073,153.640 127.500,153.828 127.667 C 153.879 127.712,154.366 128.275,154.909 128.917 C 158.474 133.127,162.174 136.460,166.801 139.628 C 167.506 140.111,168.158 140.564,168.250 140.636 C 168.755 141.029,174.328 143.914,175.766 144.527 C 184.175 148.111,190.111 147.722,196.566 143.167 C 197.932 142.202,200.162 139.646,201.763 137.208 C 202.350 136.314,203.037 135.287,203.290 134.924 C 203.543 134.561,203.798 134.145,203.857 133.999 C 204.670 131.988,207.422 129.498,210.451 128.034 C 210.926 127.805,211.880 127.322,212.333 127.081 C 212.563 126.959,212.900 126.807,213.083 126.744 C 213.282 126.675,213.335 126.597,213.215 126.552 C 212.988 126.467,209.365 128.266,208.083 129.099 C 206.333 130.238,204.797 132.062,202.500 135.726 C 196.141 145.874,187.974 148.954,177.750 145.061 C 175.766 144.306,172.231 142.696,171.503 142.216 C 171.184 142.005,170.871 141.833,170.808 141.833 C 170.660 141.833,167.221 139.730,166.668 139.302 C 166.438 139.123,165.612 138.521,164.833 137.963 C 162.715 136.446,159.617 133.756,157.833 131.886 C 155.158 129.079,154.069 127.750,151.588 124.264 C 150.887 123.278,150.696 123.092,151.017 123.708 M183.335 124.789 C 183.337 124.900,183.628 125.054,185.042 125.691 C 185.771 126.020,185.230 125.619,184.333 125.167 C 183.783 124.889,183.334 124.719,183.335 124.789 M215.121 125.532 C 214.408 125.907,213.852 126.241,213.886 126.275 C 213.957 126.346,216.174 125.215,216.408 124.987 C 216.663 124.740,216.490 124.813,215.121 125.532 M186.592 126.315 C 186.679 126.396,186.938 126.512,187.167 126.572 L 187.583 126.681 187.167 126.430 C 186.702 126.150,186.337 126.077,186.592 126.315 M141.607 129.208 C 142.020 129.890,143.637 132.303,143.868 132.583 C 144.020 132.767,144.992 133.967,146.029 135.250 C 149.287 139.284,157.455 147.000,158.466 147.000 C 158.561 147.000,158.664 147.070,158.694 147.156 C 158.742 147.290,163.184 150.301,164.347 150.988 C 166.964 152.534,167.705 152.920,171.384 154.655 C 173.067 155.448,173.598 155.663,175.750 156.428 C 176.208 156.591,177.033 156.893,177.583 157.099 C 178.133 157.306,178.808 157.526,179.083 157.589 C 179.358 157.652,180.094 157.882,180.718 158.102 C 181.342 158.321,182.167 158.494,182.552 158.487 C 183.226 158.474,183.215 158.466,182.230 158.252 C 181.243 158.037,180.073 157.679,176.917 156.629 C 169.753 154.244,160.981 149.191,154.587 143.768 C 150.479 140.283,144.850 133.949,142.417 130.072 C 142.050 129.488,141.689 129.008,141.615 129.005 C 141.541 129.002,141.537 129.094,141.607 129.208 M150.708 168.917 C 150.442 169.108,150.340 169.340,150.355 169.718 L 150.377 170.250 150.480 169.667 L 150.583 169.083 152.867 169.037 C 155.755 168.978,155.500 168.675,155.500 172.163 L 155.500 174.492 158.375 174.538 L 161.250 174.583 161.297 176.600 C 161.355 179.139,161.559 178.980,158.171 179.037 L 155.450 179.083 155.479 183.326 C 155.519 188.986,155.542 189.025,158.917 189.125 C 161.743 189.209,161.496 189.003,161.526 191.295 L 161.552 193.250 161.676 191.833 C 161.919 189.053,161.737 188.833,159.196 188.833 C 155.815 188.833,155.668 188.606,155.667 183.381 C 155.667 178.723,155.367 179.129,158.746 179.200 C 160.534 179.237,161.205 179.195,161.364 179.036 C 161.634 178.766,161.749 175.405,161.510 174.776 L 161.342 174.333 158.827 174.333 C 155.475 174.333,155.694 174.520,155.707 171.658 C 155.721 168.643,155.829 168.767,153.120 168.699 C 151.457 168.658,151.015 168.698,150.708 168.917 M210.392 168.832 C 210.195 168.912,209.978 169.076,209.909 169.197 C 209.809 169.374,209.828 169.376,210.009 169.208 C 210.343 168.898,214.645 168.915,214.764 169.228 C 214.812 169.353,214.868 170.571,214.889 171.936 L 214.926 174.417 217.659 174.463 C 221.020 174.519,220.833 174.385,220.833 176.737 C 220.833 179.143,221.037 179.000,217.618 179.000 L 214.803 179.000 214.876 183.323 C 214.972 189.090,214.943 189.045,218.618 189.141 C 221.231 189.210,221.065 189.032,220.974 191.650 C 220.909 193.552,220.864 193.630,219.808 193.699 C 219.381 193.727,219.069 193.810,219.114 193.883 C 219.218 194.051,220.680 193.847,220.958 193.625 C 221.210 193.425,221.257 189.242,221.009 189.089 C 220.922 189.035,219.928 188.969,218.801 188.941 C 215.232 188.853,215.250 188.881,215.250 183.350 L 215.250 179.250 217.995 179.167 C 221.086 179.073,221.151 179.042,221.092 177.703 C 221.077 177.362,221.050 176.582,221.033 175.970 C 220.986 174.366,220.938 174.337,218.280 174.317 C 214.985 174.292,215.266 174.539,215.167 171.581 C 215.085 169.131,215.077 169.089,214.667 168.882 C 214.189 168.641,210.959 168.603,210.392 168.832 M125.718 169.089 C 122.846 169.614,121.379 171.216,120.901 174.349 C 120.214 178.864,121.135 181.481,123.888 182.831 L 125.250 183.499 131.333 183.514 C 139.417 183.533,139.584 183.584,139.475 186.004 C 139.368 188.361,139.537 188.322,129.454 188.310 C 123.408 188.302,121.432 188.349,121.246 188.504 C 120.981 188.724,120.878 192.882,121.128 193.277 C 121.195 193.383,121.225 192.449,121.195 191.201 C 121.121 188.184,120.106 188.500,129.871 188.500 C 139.934 188.500,139.692 188.561,139.809 185.988 C 139.922 183.483,139.499 183.336,132.167 183.333 C 122.402 183.329,121.000 182.443,121.000 176.272 C 121.000 172.179,122.242 170.211,125.337 169.396 C 126.973 168.966,143.479 168.836,143.893 169.250 C 144.245 169.602,144.301 173.515,143.958 173.797 C 143.825 173.906,140.953 173.993,136.000 174.036 C 126.220 174.121,126.470 174.053,126.481 176.637 C 126.490 178.923,126.735 178.998,134.186 178.999 C 142.310 179.000,143.808 179.499,144.847 182.549 C 145.057 183.162,145.147 183.294,145.155 182.997 C 145.181 182.055,143.896 180.250,142.739 179.603 C 141.351 178.828,140.936 178.785,134.417 178.745 C 126.894 178.698,126.665 178.638,126.668 176.700 C 126.671 174.287,126.492 174.334,135.797 174.331 C 141.600 174.329,143.516 174.278,143.833 174.118 C 144.372 173.845,144.578 169.602,144.076 169.100 C 143.717 168.741,127.673 168.731,125.718 169.089 M209.667 172.000 L 209.667 174.167 209.125 174.175 C 207.713 174.197,206.394 174.386,206.173 174.599 C 205.871 174.889,205.720 177.875,205.975 178.500 C 206.106 178.820,206.148 178.464,206.156 176.972 C 206.170 174.323,206.027 174.500,208.168 174.500 L 209.966 174.500 209.941 172.167 C 209.928 170.883,209.860 169.833,209.792 169.833 C 209.723 169.833,209.667 170.808,209.667 172.000 M150.169 172.107 C 150.166 174.259,150.244 174.167,148.435 174.167 C 146.605 174.167,146.309 174.613,146.440 177.178 C 146.539 179.114,146.755 178.967,146.694 177.005 C 146.616 174.501,146.599 174.523,148.702 174.464 L 150.398 174.417 150.407 172.526 C 150.413 171.486,150.362 170.549,150.294 170.443 C 150.227 170.337,150.171 171.086,150.169 172.107 M170.065 174.333 C 166.760 174.817,164.929 176.443,164.410 179.353 C 164.140 180.861,164.085 192.764,164.345 193.186 C 164.416 193.300,164.476 190.323,164.479 186.572 C 164.486 179.112,164.556 178.408,165.424 177.156 C 166.959 174.942,168.652 174.465,175.198 174.408 C 180.943 174.357,180.478 174.168,180.565 176.583 C 180.660 179.210,181.127 178.971,175.778 179.032 C 169.018 179.108,169.433 178.597,169.375 186.917 C 169.321 194.518,169.603 193.667,167.136 193.667 C 164.597 193.667,164.613 193.810,167.156 193.855 C 169.811 193.903,169.678 194.314,169.652 186.161 C 169.629 178.885,169.295 179.250,175.972 179.250 C 181.251 179.250,180.833 179.467,180.833 176.718 C 180.833 173.968,181.239 174.162,175.542 174.187 C 172.998 174.199,170.533 174.264,170.065 174.333 M183.612 174.367 C 183.508 174.432,186.909 174.509,191.170 174.539 L 198.917 174.593 200.030 175.005 C 203.814 176.404,204.325 177.726,204.330 186.133 C 204.335 194.329,204.835 193.667,198.647 193.667 C 196.336 193.667,194.492 193.714,194.551 193.773 C 194.609 193.831,196.577 193.874,198.924 193.867 C 205.080 193.850,204.585 194.508,204.579 186.340 C 204.575 180.940,204.540 180.137,204.272 179.255 C 203.433 176.497,201.899 175.106,199.016 174.488 C 198.141 174.300,183.900 174.189,183.612 174.367 M183.051 174.958 C 182.985 175.210,182.927 176.107,182.923 176.952 C 182.913 179.270,182.233 179.068,190.381 179.167 C 195.075 179.224,197.387 179.312,197.681 179.444 C 198.408 179.770,199.000 180.614,199.000 181.322 L 199.000 181.952 192.792 182.070 C 182.907 182.258,182.081 182.742,182.085 188.333 C 182.088 192.489,183.927 194.042,188.583 193.822 C 189.100 193.798,188.752 193.738,187.667 193.665 C 183.574 193.388,182.241 191.880,182.366 187.667 C 182.463 184.375,183.225 183.279,185.917 182.560 C 186.541 182.393,188.326 182.337,193.042 182.335 L 199.333 182.333 199.333 181.640 C 199.333 180.684,198.649 179.551,197.859 179.197 C 197.334 178.963,196.291 178.917,190.333 178.869 C 186.529 178.838,183.353 178.749,183.275 178.673 C 183.119 178.519,183.116 175.160,183.271 174.754 C 183.325 174.614,183.325 174.500,183.271 174.500 C 183.217 174.500,183.118 174.706,183.051 174.958 M147.109 179.042 C 147.151 179.110,147.730 179.167,148.395 179.167 C 150.247 179.167,150.133 178.859,150.210 184.083 C 150.322 191.714,151.446 193.591,155.999 193.755 L 157.583 193.812 156.250 193.676 C 151.489 193.189,150.515 191.501,150.458 183.635 L 150.424 179.020 148.727 178.968 C 147.794 178.940,147.066 178.973,147.109 179.042 M206.333 179.042 C 206.333 179.110,206.615 179.178,206.958 179.192 C 207.529 179.215,207.905 179.235,209.193 179.308 L 209.636 179.333 209.706 184.125 C 209.807 191.105,210.356 192.389,213.750 193.581 C 214.261 193.761,216.652 193.944,216.561 193.797 C 216.516 193.725,216.091 193.665,215.615 193.663 C 213.435 193.654,211.459 192.394,210.555 190.436 L 210.083 189.417 210.000 184.250 L 209.917 179.083 208.125 179.000 C 207.139 178.954,206.333 178.973,206.333 179.042 M145.229 186.460 C 145.173 191.148,143.318 193.216,138.772 193.657 C 137.424 193.787,137.422 193.788,138.428 193.811 C 140.156 193.849,143.167 193.040,143.167 192.536 C 143.167 192.454,143.344 192.306,143.560 192.208 C 144.052 191.983,145.060 190.063,145.313 188.867 C 145.522 187.879,145.569 184.666,145.375 184.668 C 145.306 184.669,145.240 185.475,145.229 186.460 M189.000 185.487 C 187.800 185.730,187.451 186.085,187.267 187.250 C 186.929 189.400,187.375 189.568,193.317 189.529 C 199.477 189.488,199.393 189.526,199.299 186.823 L 199.250 185.417 194.417 185.393 C 191.758 185.380,189.321 185.422,189.000 185.487 M198.836 185.770 C 199.367 186.301,199.018 188.652,198.349 189.047 C 197.621 189.478,188.953 189.480,188.329 189.049 C 187.253 188.308,187.156 186.815,188.137 186.083 C 188.773 185.608,198.393 185.326,198.836 185.770 M161.239 193.493 C 161.153 193.578,160.671 193.675,160.167 193.710 L 159.250 193.772 160.167 193.800 C 161.019 193.826,161.692 193.636,161.484 193.429 C 161.435 193.379,161.324 193.408,161.239 193.493 M123.042 193.791 C 123.935 193.821,125.398 193.821,126.292 193.791 C 127.185 193.761,126.454 193.736,124.667 193.736 C 122.879 193.736,122.148 193.761,123.042 193.791 M128.375 193.786 C 128.627 193.824,129.040 193.824,129.292 193.786 C 129.544 193.748,129.337 193.717,128.833 193.717 C 128.329 193.717,128.123 193.748,128.375 193.786 M129.862 193.751 C 129.978 193.867,134.513 193.876,134.629 193.760 C 134.680 193.709,133.610 193.667,132.250 193.667 C 130.890 193.667,129.816 193.705,129.862 193.751 M135.463 193.789 C 135.855 193.824,136.455 193.824,136.796 193.788 C 137.137 193.752,136.817 193.723,136.083 193.724 C 135.350 193.724,135.071 193.754,135.463 193.789 M189.557 193.780 C 189.677 193.899,191.357 193.865,191.482 193.740 C 191.523 193.700,191.081 193.667,190.500 193.667 C 189.919 193.667,189.495 193.718,189.557 193.780 M193.042 193.786 C 193.294 193.824,193.706 193.824,193.958 193.786 C 194.210 193.748,194.004 193.717,193.500 193.717 C 192.996 193.717,192.790 193.748,193.042 193.786 M217.071 193.853 C 217.021 193.934,217.285 194.000,217.657 194.000 C 218.029 194.000,218.333 193.941,218.333 193.869 C 218.333 193.686,217.183 193.672,217.071 193.853 " stroke="none" fill="#77dbd8" fill-rule="evenodd"></path><path id="path3" d="M211.889 22.743 C 209.799 23.652,210.291 26.599,212.583 26.907 C 213.042 26.968,214.129 27.205,215.000 27.433 C 215.871 27.660,217.446 28.071,218.500 28.346 C 220.590 28.890,221.123 29.063,223.000 29.805 C 223.688 30.077,224.512 30.393,224.833 30.507 C 225.154 30.622,225.884 30.929,226.455 31.191 C 227.026 31.453,227.552 31.667,227.625 31.667 C 227.917 31.667,231.257 33.430,232.917 34.462 C 233.375 34.746,234.228 35.265,234.813 35.615 C 235.398 35.964,236.044 36.362,236.248 36.500 C 237.147 37.105,238.598 38.114,239.070 38.461 C 239.352 38.669,239.773 38.969,240.005 39.128 C 240.481 39.454,244.457 42.817,245.273 43.583 C 245.566 43.858,246.109 44.366,246.480 44.712 C 247.312 45.487,249.435 47.956,251.457 50.500 C 252.295 51.554,253.100 52.550,253.244 52.712 C 253.389 52.875,253.747 53.400,254.039 53.879 C 254.331 54.358,254.629 54.775,254.702 54.806 C 254.774 54.836,254.833 54.962,254.833 55.084 C 254.833 55.207,255.007 55.520,255.219 55.779 C 255.432 56.038,255.758 56.550,255.944 56.917 C 256.131 57.283,256.764 58.446,257.353 59.500 C 259.021 62.490,260.213 65.049,260.728 66.750 C 261.506 69.318,262.198 70.167,263.515 70.167 C 264.824 70.167,265.433 69.670,265.722 68.366 C 265.840 67.830,265.398 66.113,264.820 64.868 C 264.552 64.290,264.333 63.733,264.333 63.629 C 264.333 63.470,262.699 59.998,262.115 58.917 C 262.016 58.733,261.702 58.133,261.416 57.583 C 260.684 56.172,260.171 55.293,259.900 54.987 C 259.772 54.842,259.667 54.667,259.667 54.597 C 259.667 54.527,259.512 54.270,259.324 54.026 C 259.135 53.783,258.651 53.058,258.247 52.417 C 257.843 51.775,257.433 51.157,257.336 51.044 C 257.238 50.931,256.998 50.556,256.802 50.211 C 256.605 49.866,256.279 49.396,256.076 49.167 C 255.874 48.938,255.680 48.662,255.646 48.555 C 255.355 47.649,247.243 39.139,245.304 37.706 C 244.816 37.346,244.098 36.765,243.709 36.415 C 243.319 36.065,242.821 35.660,242.602 35.515 C 242.383 35.369,241.727 34.913,241.144 34.500 C 240.561 34.088,239.965 33.676,239.819 33.584 C 239.011 33.073,237.572 32.098,237.500 32.014 C 237.454 31.961,237.154 31.780,236.833 31.614 C 235.872 31.114,235.217 30.738,234.720 30.402 C 234.068 29.960,232.885 29.329,230.833 28.330 C 228.068 26.983,227.044 26.528,225.583 26.000 C 225.125 25.835,224.338 25.550,223.833 25.367 C 221.888 24.660,219.735 23.996,219.396 23.998 C 219.201 23.999,218.714 23.884,218.313 23.741 C 217.684 23.518,212.862 22.488,212.533 22.507 C 212.469 22.510,212.179 22.616,211.889 22.743 M214.690 23.329 C 218.291 24.087,220.057 24.546,222.500 25.355 C 236.714 30.067,249.903 40.224,257.854 52.583 C 258.267 53.225,258.997 54.350,259.475 55.083 C 260.564 56.752,263.545 62.776,264.565 65.369 C 265.726 68.321,265.557 69.453,263.909 69.763 C 262.526 70.022,262.207 69.604,260.667 65.518 C 259.566 62.596,258.627 60.719,256.197 56.583 C 251.765 49.040,245.509 42.372,237.917 37.100 C 234.699 34.866,229.996 32.197,227.222 31.030 C 221.645 28.686,219.669 28.070,212.593 26.471 C 211.476 26.218,211.000 25.718,211.000 24.795 C 211.000 23.093,211.891 22.739,214.690 23.329 M211.417 35.101 C 208.262 35.492,207.661 35.675,204.681 37.143 C 203.574 37.689,202.821 38.203,202.125 38.888 C 200.787 40.204,201.033 40.269,202.596 39.012 C 206.481 35.886,211.439 34.806,216.333 36.020 C 222.670 37.592,229.959 41.240,235.564 45.646 C 254.410 60.463,262.240 83.479,256.312 106.641 C 255.587 109.472,254.714 112.033,253.830 113.917 C 253.744 114.100,253.162 115.375,252.536 116.750 C 246.200 130.668,232.626 142.234,217.133 146.919 C 212.877 148.206,211.989 152.856,215.703 154.408 C 217.803 155.285,226.659 151.895,234.591 147.178 C 243.500 141.880,252.690 132.277,257.607 123.127 C 258.211 122.003,258.763 121.008,258.833 120.917 C 259.177 120.466,261.017 116.218,261.503 114.752 C 262.347 112.202,263.476 111.467,264.815 112.593 C 265.625 113.275,265.627 113.822,264.831 115.987 C 258.966 131.924,245.643 146.423,230.333 153.530 C 229.371 153.977,228.457 154.412,228.303 154.498 C 226.823 155.325,220.527 157.560,217.917 158.186 C 211.241 159.784,205.758 155.907,205.373 149.315 C 205.065 144.024,208.454 139.589,214.293 137.641 C 218.708 136.168,224.186 133.472,227.583 131.100 C 244.065 119.592,251.530 100.082,246.945 80.500 C 246.339 77.910,245.843 76.196,245.403 75.167 C 245.188 74.662,244.701 73.500,244.322 72.583 C 243.943 71.667,243.500 70.692,243.337 70.417 C 243.175 70.142,242.687 69.242,242.254 68.417 C 239.063 62.347,233.075 55.783,227.167 51.879 C 225.838 51.000,224.563 50.156,224.333 50.002 C 223.296 49.305,219.896 47.614,218.000 46.853 C 211.863 44.390,208.736 45.231,204.822 50.398 C 203.911 51.600,202.700 53.146,202.130 53.833 C 201.146 55.020,201.131 55.051,201.838 54.434 C 202.934 53.478,203.833 52.537,203.833 52.344 C 203.833 52.251,204.022 52.051,204.252 51.900 C 204.482 51.749,204.715 51.447,204.770 51.230 C 204.825 51.012,204.926 50.833,204.994 50.833 C 205.063 50.833,205.386 50.432,205.712 49.942 C 208.408 45.880,213.446 44.903,218.448 47.473 C 218.614 47.558,218.938 47.704,219.167 47.798 C 220.063 48.164,221.951 49.121,222.622 49.550 C 223.009 49.797,223.392 50.000,223.471 50.000 C 223.550 50.000,223.833 50.187,224.099 50.416 C 224.365 50.646,224.650 50.833,224.732 50.833 C 224.886 50.833,228.037 52.920,228.917 53.605 C 232.255 56.202,237.007 61.054,238.756 63.651 C 239.028 64.055,239.362 64.550,239.500 64.751 C 240.351 65.996,241.171 67.303,241.592 68.083 C 243.463 71.557,244.678 74.285,245.413 76.667 C 245.569 77.171,245.793 77.808,245.912 78.083 C 246.030 78.358,246.186 78.883,246.259 79.250 C 246.331 79.617,246.403 79.954,246.417 80.000 C 247.845 84.488,248.326 94.264,247.332 98.570 C 247.245 98.944,247.173 99.590,247.171 100.005 C 247.169 100.421,247.053 101.171,246.913 101.672 C 246.774 102.173,246.480 103.258,246.259 104.083 C 245.700 106.181,243.986 110.992,243.575 111.619 C 243.442 111.822,243.333 112.097,243.333 112.230 C 243.333 112.363,243.275 112.497,243.203 112.528 C 243.039 112.597,242.333 113.798,242.333 114.007 C 242.333 114.266,239.512 118.854,239.161 119.167 C 239.109 119.212,238.888 119.513,238.669 119.833 C 238.246 120.453,237.771 121.039,236.524 122.475 C 236.098 122.965,235.693 123.466,235.623 123.588 C 235.182 124.362,229.007 129.833,228.575 129.833 C 228.512 129.833,228.219 130.040,227.923 130.292 C 227.628 130.544,227.243 130.843,227.068 130.957 C 226.893 131.070,226.338 131.448,225.833 131.797 C 225.329 132.145,224.204 132.783,223.333 133.215 C 222.463 133.647,221.563 134.106,221.333 134.235 C 220.440 134.740,218.794 135.500,218.594 135.500 C 218.478 135.500,218.016 135.696,217.566 135.936 C 217.117 136.175,216.450 136.470,216.083 136.590 C 211.534 138.081,210.334 138.691,208.443 140.478 C 207.706 141.175,205.834 143.931,205.832 144.321 C 205.832 144.465,205.725 144.787,205.595 145.037 C 204.336 147.450,204.796 151.797,206.613 154.643 C 208.568 157.705,212.568 159.431,216.333 158.837 C 217.021 158.728,217.921 158.585,218.333 158.519 C 218.746 158.453,219.608 158.223,220.250 158.009 C 220.892 157.794,221.979 157.432,222.667 157.203 C 224.823 156.487,231.290 153.697,231.833 153.249 C 231.971 153.135,232.364 152.952,232.706 152.842 C 233.048 152.732,233.373 152.571,233.426 152.484 C 233.480 152.397,233.950 152.098,234.470 151.820 C 236.303 150.839,236.920 150.471,237.261 150.154 C 237.450 149.977,237.675 149.832,237.761 149.831 C 237.847 149.830,238.104 149.680,238.333 149.499 C 238.969 148.996,240.517 148.000,240.663 148.000 C 240.734 148.000,240.890 147.883,241.009 147.740 C 241.127 147.596,241.605 147.226,242.071 146.916 C 242.876 146.380,243.633 145.769,245.646 144.026 C 248.987 141.133,252.910 136.975,255.335 133.756 C 255.746 133.209,256.215 132.628,256.375 132.464 C 256.535 132.301,256.667 132.096,256.667 132.010 C 256.667 131.924,256.892 131.608,257.167 131.306 C 257.442 131.005,257.667 130.680,257.667 130.584 C 257.667 130.488,257.879 130.148,258.138 129.830 C 258.397 129.511,258.662 129.137,258.727 129.000 C 258.791 128.862,259.140 128.300,259.500 127.750 C 259.861 127.200,260.338 126.412,260.560 126.000 C 260.782 125.587,261.155 124.912,261.389 124.500 C 262.271 122.946,264.213 118.846,264.508 117.917 C 264.624 117.550,264.858 117.004,265.026 116.703 C 265.195 116.403,265.333 116.017,265.333 115.847 C 265.333 115.677,265.445 115.323,265.582 115.061 C 266.424 113.447,265.179 111.508,263.431 111.707 C 262.332 111.833,261.784 112.488,261.154 114.431 C 260.449 116.603,259.200 119.344,257.591 122.250 C 257.287 122.800,256.881 123.550,256.689 123.917 C 256.140 124.968,255.697 125.733,255.516 125.943 C 255.424 126.049,255.064 126.566,254.716 127.092 C 253.222 129.350,252.251 130.669,251.042 132.086 C 250.469 132.758,250.000 133.336,250.000 133.371 C 250.000 133.437,248.983 134.520,246.511 137.083 C 244.970 138.682,242.220 141.286,241.988 141.368 C 241.911 141.395,241.639 141.588,241.382 141.799 C 240.171 142.792,238.699 143.914,238.166 144.250 C 237.843 144.454,237.477 144.744,237.352 144.894 C 237.228 145.044,237.052 145.167,236.962 145.167 C 236.872 145.167,236.514 145.392,236.167 145.667 C 235.819 145.942,235.467 146.167,235.382 146.167 C 235.298 146.167,235.075 146.310,234.887 146.486 C 234.698 146.662,234.164 146.998,233.700 147.233 C 233.236 147.468,232.810 147.737,232.752 147.830 C 232.694 147.924,232.531 148.000,232.389 148.000 C 232.248 148.000,231.798 148.225,231.391 148.500 C 230.983 148.775,230.556 149.000,230.441 149.000 C 230.326 149.000,229.877 149.225,229.444 149.500 C 229.010 149.775,228.603 150.000,228.538 150.000 C 228.474 150.000,228.045 150.182,227.586 150.405 C 225.706 151.317,222.067 152.834,221.763 152.832 C 221.664 152.832,221.021 153.047,220.333 153.311 C 216.774 154.678,215.084 154.373,214.145 152.195 C 213.146 149.878,214.949 147.568,218.167 147.040 C 218.487 146.988,219.267 146.732,219.898 146.472 C 220.529 146.213,221.128 146.000,221.229 146.000 C 221.330 146.000,221.825 145.806,222.331 145.570 C 222.836 145.333,223.737 144.915,224.333 144.639 C 225.569 144.068,225.646 144.031,226.667 143.509 C 227.079 143.297,227.529 143.071,227.667 143.006 C 228.773 142.479,231.315 141.068,231.583 140.831 C 231.767 140.670,232.217 140.385,232.583 140.198 C 233.255 139.857,233.454 139.716,234.722 138.685 C 235.104 138.375,235.942 137.728,236.583 137.248 C 237.225 136.767,237.900 136.230,238.083 136.055 C 238.267 135.879,239.047 135.180,239.818 134.502 C 240.588 133.824,241.488 132.989,241.818 132.646 C 242.147 132.304,242.810 131.615,243.292 131.116 C 243.773 130.616,244.167 130.158,244.167 130.098 C 244.167 130.038,244.423 129.732,244.737 129.419 C 245.320 128.835,246.832 126.966,247.421 126.100 C 247.602 125.834,247.862 125.455,248.000 125.257 C 248.137 125.059,248.493 124.526,248.791 124.073 C 249.088 123.620,249.459 123.076,249.615 122.863 C 249.770 122.651,249.977 122.340,250.074 122.174 C 250.171 122.008,250.579 121.326,250.981 120.659 C 251.908 119.122,252.634 117.747,252.912 117.000 C 253.032 116.679,253.665 115.217,254.319 113.750 C 254.973 112.283,255.589 110.783,255.689 110.417 C 255.789 110.050,255.928 109.600,256.000 109.417 C 256.121 109.107,256.374 108.153,256.817 106.333 C 258.985 97.440,259.240 90.575,257.754 81.083 C 257.494 79.426,257.014 77.465,256.244 74.917 C 256.023 74.183,255.797 73.358,255.742 73.083 C 255.589 72.310,253.946 68.241,253.487 67.500 C 253.402 67.362,253.255 67.063,253.160 66.833 C 252.991 66.424,252.258 64.897,251.281 62.917 C 251.009 62.367,250.663 61.767,250.510 61.583 C 250.164 61.167,249.357 59.993,248.917 59.266 C 248.368 58.359,246.442 55.833,246.299 55.833 C 246.226 55.833,246.167 55.736,246.167 55.618 C 246.167 55.500,245.923 55.138,245.625 54.815 C 245.327 54.491,244.265 53.310,243.265 52.190 C 242.265 51.070,241.350 50.100,241.233 50.034 C 240.968 49.886,238.284 47.443,237.580 46.708 C 237.294 46.410,236.975 46.167,236.873 46.167 C 236.770 46.167,236.588 46.030,236.468 45.863 C 236.268 45.584,233.901 43.826,233.155 43.402 C 232.979 43.302,232.704 43.111,232.543 42.977 C 232.382 42.842,231.894 42.556,231.458 42.340 C 231.023 42.124,230.667 41.886,230.667 41.810 C 230.667 41.734,230.310 41.479,229.875 41.243 C 229.440 41.007,228.708 40.597,228.250 40.331 C 226.497 39.313,222.828 37.595,222.049 37.426 C 221.755 37.362,221.225 37.170,220.871 36.999 C 220.517 36.828,220.008 36.636,219.739 36.572 C 219.470 36.508,218.712 36.283,218.054 36.072 C 216.156 35.463,212.641 34.949,211.417 35.101 M196.658 45.260 C 196.342 45.587,196.203 45.808,196.350 45.752 C 196.579 45.665,197.441 44.667,197.288 44.667 C 197.257 44.667,196.974 44.934,196.658 45.260 M208.256 51.517 C 207.932 51.802,207.667 52.126,207.667 52.237 C 207.667 52.349,207.498 52.594,207.292 52.783 C 206.766 53.263,206.122 54.008,205.809 54.500 C 205.470 55.031,203.890 56.647,202.526 57.857 C 201.359 58.892,201.245 59.319,202.084 59.509 C 205.810 60.356,206.815 60.609,208.167 61.037 C 210.549 61.792,213.881 63.243,214.583 63.832 C 214.875 64.076,215.795 64.656,216.875 65.277 C 217.060 65.383,217.258 65.538,217.314 65.622 C 217.371 65.705,217.829 66.078,218.333 66.451 C 219.515 67.324,223.167 71.139,223.167 71.501 C 223.167 71.569,223.282 71.721,223.422 71.838 C 223.665 72.039,223.873 72.415,225.040 74.750 C 225.315 75.300,225.595 75.787,225.664 75.833 C 225.732 75.879,225.846 76.104,225.917 76.333 C 225.988 76.563,226.235 77.162,226.465 77.667 C 226.696 78.171,226.945 78.808,227.019 79.083 C 227.537 81.001,227.838 82.211,228.000 83.036 C 228.185 83.973,228.208 84.001,229.386 84.776 C 231.706 86.300,235.667 90.179,235.667 90.926 C 235.667 90.998,235.798 91.202,235.958 91.378 C 236.119 91.555,236.588 92.386,237.000 93.225 C 238.226 95.717,238.554 95.302,238.824 90.917 C 238.981 88.368,238.956 87.380,238.674 85.167 C 238.586 84.479,238.472 83.392,238.419 82.750 C 238.367 82.108,238.172 80.983,237.985 80.250 C 237.799 79.517,237.582 78.569,237.503 78.144 C 237.424 77.719,237.244 77.044,237.102 76.644 C 236.494 74.927,236.333 74.509,235.928 73.592 C 235.693 73.060,235.500 72.523,235.500 72.398 C 235.500 72.089,233.322 67.886,232.958 67.495 C 232.798 67.322,232.667 67.108,232.667 67.019 C 232.667 66.930,232.569 66.758,232.451 66.637 C 232.332 66.516,231.850 65.892,231.379 65.250 C 229.577 62.792,229.111 62.277,226.328 59.667 C 225.150 58.561,225.125 58.541,223.988 57.731 C 223.490 57.377,223.058 57.030,223.028 56.960 C 222.997 56.891,222.876 56.833,222.759 56.833 C 222.642 56.833,222.277 56.627,221.949 56.375 C 221.168 55.774,219.666 54.833,219.489 54.833 C 219.413 54.833,219.017 54.608,218.609 54.333 C 218.202 54.058,217.783 53.833,217.678 53.833 C 217.574 53.833,217.317 53.721,217.108 53.584 C 216.052 52.893,210.351 51.000,209.324 51.000 C 209.026 51.000,208.622 51.195,208.256 51.517 M212.750 52.303 C 218.425 54.140,224.386 57.957,228.425 62.337 C 229.641 63.657,230.667 64.936,230.667 65.134 C 230.667 65.228,230.728 65.331,230.802 65.361 C 231.196 65.522,233.340 68.864,234.261 70.750 C 237.052 76.467,238.408 82.417,238.401 88.917 C 238.396 94.070,238.219 94.627,237.206 92.675 C 235.677 89.732,232.314 85.994,229.842 84.490 C 228.871 83.900,228.576 83.628,228.486 83.243 C 227.701 79.872,227.407 78.840,226.826 77.417 C 223.075 68.218,216.049 62.440,205.462 59.851 C 204.298 59.566,203.236 59.333,203.101 59.333 C 201.788 59.333,201.877 59.109,204.042 56.959 C 205.174 55.836,206.608 54.279,207.229 53.500 C 207.850 52.721,208.473 51.942,208.613 51.770 C 208.974 51.325,210.233 51.487,212.750 52.303 M200.333 70.454 C 200.333 70.649,200.630 71.508,200.992 72.362 C 201.354 73.217,202.295 75.567,203.083 77.583 C 205.370 83.440,205.241 83.262,208.258 84.679 C 209.262 85.150,210.683 85.820,211.417 86.168 C 212.150 86.516,213.650 87.196,214.750 87.680 C 218.610 89.377,219.249 88.762,208.833 93.370 C 205.739 94.739,205.347 95.119,204.410 97.658 C 204.290 97.984,203.919 98.888,203.585 99.667 C 203.251 100.446,202.579 102.133,202.092 103.417 C 201.604 104.700,201.009 106.191,200.769 106.729 C 200.529 107.268,200.338 107.868,200.344 108.062 C 200.362 108.683,201.357 106.395,202.583 102.917 C 202.744 102.458,203.092 101.647,203.355 101.114 C 203.618 100.580,203.833 100.034,203.833 99.901 C 203.833 99.767,204.058 99.211,204.333 98.667 C 204.608 98.122,204.833 97.560,204.833 97.418 C 204.833 97.276,205.010 96.880,205.226 96.538 C 205.441 96.196,205.669 95.767,205.731 95.583 C 205.833 95.280,207.114 94.333,207.422 94.333 C 207.493 94.333,207.933 94.154,208.401 93.935 C 208.868 93.716,210.037 93.187,211.000 92.760 C 213.261 91.757,213.509 91.645,215.000 90.958 C 215.688 90.641,216.438 90.336,216.667 90.279 C 217.597 90.051,218.183 89.214,217.708 88.793 C 217.326 88.454,213.177 86.500,212.840 86.500 C 212.741 86.500,212.363 86.313,212.000 86.083 C 211.637 85.854,211.282 85.667,211.212 85.667 C 211.141 85.667,210.633 85.447,210.083 85.179 C 209.533 84.910,208.355 84.340,207.464 83.912 L 205.845 83.132 205.157 81.691 C 204.150 79.583,203.444 77.881,202.825 76.070 C 202.666 75.605,202.378 74.914,202.185 74.535 C 201.991 74.156,201.833 73.747,201.833 73.626 C 201.833 73.346,200.678 70.471,200.481 70.258 C 200.392 70.163,200.333 70.241,200.333 70.454 M164.771 73.090 C 164.713 73.239,164.673 73.486,164.681 73.639 C 164.689 73.792,164.761 73.695,164.842 73.425 C 164.999 72.899,164.944 72.639,164.771 73.090 M179.681 93.726 C 179.719 93.759,180.050 93.832,180.417 93.888 C 180.871 93.958,181.004 93.940,180.833 93.831 C 180.606 93.686,179.519 93.587,179.681 93.726 M232.250 168.786 C 230.480 168.932,228.441 169.352,227.623 169.739 C 227.125 169.974,226.650 170.168,226.567 170.169 C 226.172 170.174,224.278 172.511,223.982 173.358 C 222.973 176.246,222.800 185.806,223.707 188.529 C 224.615 191.254,226.228 192.732,229.167 193.531 C 231.370 194.131,243.451 194.126,245.750 193.524 C 247.222 193.139,248.500 192.571,248.500 192.303 C 248.500 192.228,248.594 192.161,248.708 192.155 C 248.823 192.148,249.217 191.774,249.583 191.324 C 249.950 190.874,250.348 190.392,250.468 190.255 C 250.588 190.117,250.921 189.347,251.208 188.544 L 251.729 187.083 251.776 182.000 C 251.802 179.204,251.753 176.561,251.667 176.127 C 250.760 171.546,248.731 169.499,244.604 169.002 C 243.094 168.820,233.807 168.658,232.250 168.786 M261.833 168.850 C 258.196 169.039,256.703 169.656,255.562 171.439 C 254.148 173.650,254.120 179.062,255.512 181.078 C 257.118 183.405,258.244 183.669,266.500 183.652 C 271.461 183.643,271.802 183.679,272.575 184.293 C 273.481 185.014,273.390 187.150,272.426 187.806 L 271.853 188.196 263.471 188.258 C 253.613 188.331,254.666 188.014,254.669 190.907 C 254.673 194.356,253.659 194.056,264.974 193.961 L 273.917 193.886 275.208 193.461 C 276.332 193.091,276.877 192.765,277.515 192.083 C 277.940 191.629,278.662 190.606,278.732 190.360 C 280.237 185.026,279.155 180.827,275.860 179.215 L 274.925 178.757 268.340 178.692 L 261.754 178.627 261.127 178.000 C 260.424 177.296,260.296 176.477,260.729 175.440 C 261.190 174.339,261.235 174.333,269.817 174.333 C 279.069 174.333,278.167 174.621,278.167 171.675 C 278.167 169.327,278.013 168.839,277.265 168.821 C 274.355 168.752,263.318 168.772,261.833 168.850 M245.833 169.581 C 250.180 170.770,251.355 173.268,251.365 181.350 C 251.377 189.990,250.100 192.249,244.583 193.343 C 243.328 193.592,231.665 193.585,230.332 193.335 C 224.642 192.265,223.460 190.003,223.584 180.417 C 223.677 173.236,224.596 171.227,228.417 169.856 C 230.507 169.106,243.354 168.903,245.833 169.581 M277.571 169.429 C 277.778 169.635,277.833 170.078,277.833 171.512 C 277.833 174.257,278.696 174.000,269.503 173.990 C 260.820 173.981,260.916 173.968,260.430 175.183 C 259.854 176.620,260.274 178.268,261.347 178.784 C 261.644 178.927,263.378 178.993,267.341 179.011 C 270.407 179.025,273.404 179.105,274.000 179.187 C 277.737 179.706,279.430 182.628,278.864 187.584 C 278.474 191.001,277.217 192.560,274.297 193.248 C 272.475 193.678,255.406 193.615,255.173 193.178 C 254.973 192.805,254.941 189.184,255.135 188.880 C 255.233 188.725,257.263 188.662,263.590 188.619 C 273.800 188.550,273.500 188.630,273.500 185.976 C 273.500 183.446,273.126 183.308,266.335 183.323 C 257.469 183.344,255.787 182.635,254.993 178.545 C 254.059 173.732,255.798 170.232,259.526 169.423 C 261.203 169.059,277.207 169.064,277.571 169.429 M232.120 174.168 C 229.444 174.636,229.098 175.389,229.031 180.880 C 228.938 188.584,228.937 188.583,237.333 188.583 C 245.942 188.583,245.917 188.605,245.917 181.333 C 245.917 175.954,245.701 175.263,243.750 174.384 C 243.010 174.050,233.774 173.879,232.120 174.168 M243.288 174.673 C 245.120 175.222,245.500 176.367,245.500 181.338 C 245.500 188.050,245.365 188.191,238.833 188.299 C 229.461 188.452,229.284 188.314,229.384 180.917 C 229.473 174.334,229.429 174.364,238.924 174.438 C 241.284 174.456,242.845 174.540,243.288 174.673 " stroke="none" fill="#eaf78c" fill-rule="evenodd"></path><path id="path4" d="M185.500 23.190 C 180.976 24.018,174.724 26.034,170.627 27.987 C 170.009 28.281,169.417 28.468,169.310 28.402 C 169.201 28.335,169.160 28.354,169.216 28.445 C 169.271 28.534,168.701 28.920,167.950 29.301 C 154.100 36.331,143.188 47.874,136.487 62.583 C 135.639 64.446,134.500 67.617,134.500 68.117 C 134.500 70.035,138.111 70.614,138.161 68.705 C 138.164 68.588,138.392 67.995,138.668 67.387 C 138.944 66.778,139.198 66.124,139.233 65.932 C 139.268 65.740,139.483 65.171,139.712 64.667 C 139.941 64.162,140.379 63.188,140.685 62.500 C 140.990 61.813,141.364 61.063,141.514 60.833 C 141.665 60.604,142.158 59.704,142.611 58.833 C 143.064 57.962,143.574 57.025,143.744 56.750 C 144.266 55.905,144.911 54.921,145.000 54.833 C 145.046 54.788,145.520 54.086,146.054 53.275 C 146.952 51.910,149.291 48.828,150.196 47.818 C 152.441 45.310,153.390 44.335,155.250 42.619 C 156.442 41.519,157.792 40.336,158.250 39.989 C 158.708 39.641,159.458 39.069,159.917 38.717 C 160.375 38.365,161.305 37.703,161.983 37.247 C 162.662 36.790,163.381 36.304,163.581 36.167 C 163.958 35.908,164.971 35.280,166.833 34.153 C 173.565 30.076,185.124 26.189,187.733 27.124 C 190.606 28.154,191.371 31.856,189.140 33.935 C 188.313 34.705,187.820 34.910,185.167 35.586 C 182.716 36.211,177.712 37.874,176.692 38.403 C 176.385 38.562,176.010 38.719,175.859 38.753 C 175.707 38.786,174.348 39.459,172.838 40.248 C 170.445 41.499,169.241 42.198,167.917 43.106 C 167.733 43.231,167.172 43.607,166.669 43.940 C 164.220 45.564,161.220 48.087,158.583 50.741 C 154.646 54.705,152.504 57.474,149.036 63.083 C 148.533 63.896,146.551 67.794,146.515 68.041 C 146.505 68.109,146.302 68.597,146.064 69.124 C 145.826 69.652,145.617 70.196,145.598 70.333 C 145.580 70.471,145.360 71.030,145.110 71.577 C 144.859 72.123,144.632 72.686,144.606 72.827 C 144.580 72.968,144.359 73.703,144.115 74.461 C 143.870 75.218,143.630 76.081,143.580 76.377 C 143.530 76.674,143.420 77.142,143.334 77.417 C 143.035 78.384,142.539 80.419,142.542 80.667 C 142.544 80.804,142.377 81.892,142.172 83.083 C 141.120 89.201,141.482 98.208,143.039 104.667 C 143.227 105.446,143.400 106.271,143.424 106.500 C 143.480 107.035,144.744 110.788,145.266 111.970 C 145.487 112.467,145.667 112.955,145.667 113.052 C 145.667 113.277,147.561 117.478,148.161 118.583 C 149.164 120.432,149.739 121.421,149.859 121.506 C 149.929 121.554,150.195 121.984,150.451 122.460 C 150.909 123.311,151.428 124.074,153.083 126.328 C 156.146 130.498,160.681 134.989,164.833 137.963 C 165.612 138.521,166.438 139.123,166.668 139.302 C 167.221 139.730,170.660 141.833,170.808 141.833 C 170.871 141.833,171.184 142.005,171.503 142.216 C 172.231 142.696,175.766 144.306,177.750 145.061 C 187.974 148.954,196.141 145.874,202.500 135.726 C 205.667 130.673,206.808 129.579,211.083 127.501 C 212.275 126.921,213.981 126.082,214.875 125.636 C 215.769 125.190,216.501 124.883,216.503 124.954 C 216.504 125.025,216.560 125.008,216.628 124.917 C 216.695 124.825,217.237 124.494,217.833 124.180 C 218.429 123.867,219.230 123.399,219.613 123.139 C 219.997 122.879,220.345 122.667,220.388 122.667 C 220.476 122.667,221.803 121.785,222.677 121.146 C 222.992 120.915,223.925 120.232,224.750 119.627 C 225.575 119.022,226.997 117.776,227.910 116.858 C 228.823 115.941,229.640 115.234,229.727 115.287 C 229.814 115.341,229.835 115.304,229.774 115.205 C 229.713 115.106,229.945 114.692,230.290 114.284 C 230.977 113.472,231.329 113.024,231.583 112.636 C 232.896 110.637,233.301 109.954,233.846 108.827 C 234.199 108.097,234.452 107.500,234.408 107.500 C 234.365 107.500,234.443 107.226,234.583 106.892 C 235.308 105.158,235.789 99.575,235.274 98.871 C 235.189 98.754,235.159 98.619,235.207 98.571 C 235.599 98.178,233.846 93.862,232.513 91.941 C 230.367 88.849,225.543 85.686,222.082 85.101 C 219.462 84.659,216.495 84.406,216.507 84.626 C 216.511 84.694,218.026 85.500,219.876 86.417 C 223.798 88.361,225.337 89.202,225.286 89.373 C 225.250 89.496,218.818 92.710,217.309 93.360 C 216.230 93.824,216.286 93.932,217.667 94.061 C 225.071 94.749,227.845 101.307,223.291 107.358 C 222.145 108.880,220.666 110.455,219.417 111.481 C 218.355 112.353,217.873 112.711,216.017 114.000 C 215.214 114.559,213.390 115.667,213.274 115.667 C 213.223 115.667,212.822 115.879,212.382 116.138 C 211.943 116.397,211.529 116.625,211.462 116.644 C 211.345 116.678,209.743 117.405,207.885 118.266 C 207.410 118.486,206.944 118.667,206.850 118.667 C 206.634 118.667,204.549 119.793,204.022 120.195 C 203.805 120.360,203.561 120.455,203.480 120.405 C 203.400 120.355,203.333 120.374,203.332 120.448 C 203.332 120.523,203.050 120.769,202.707 120.997 C 200.901 122.194,197.141 125.762,196.121 127.246 C 195.420 128.267,193.800 130.706,193.020 131.917 C 190.214 136.270,185.786 137.448,180.333 135.291 C 177.609 134.213,173.539 131.978,171.457 130.417 C 171.212 130.233,170.653 129.823,170.214 129.505 C 167.880 127.814,165.264 125.328,163.105 122.750 C 161.418 120.736,160.100 119.000,160.257 119.000 C 160.312 119.000,160.227 118.870,160.068 118.711 C 159.721 118.364,158.757 116.898,158.122 115.750 C 157.290 114.248,155.508 110.603,155.573 110.538 C 155.608 110.503,155.432 110.049,155.182 109.529 C 154.518 108.151,152.525 101.586,152.713 101.398 C 152.758 101.353,152.723 101.002,152.636 100.617 C 151.599 96.014,151.421 90.567,152.154 85.833 C 152.331 84.688,152.525 83.412,152.584 83.000 C 152.987 80.210,154.487 75.389,155.929 72.250 C 156.140 71.792,156.427 71.154,156.567 70.833 C 157.270 69.227,159.291 65.833,159.544 65.833 C 159.642 65.833,159.678 65.789,159.623 65.734 C 158.988 65.099,168.970 54.046,170.426 53.773 C 170.494 53.760,170.819 53.502,171.150 53.198 C 171.480 52.895,171.910 52.558,172.106 52.448 C 172.301 52.339,173.043 51.856,173.754 51.375 C 174.465 50.894,175.080 50.500,175.122 50.500 C 175.164 50.500,175.398 50.359,175.641 50.187 C 178.168 48.399,185.641 45.404,189.232 44.740 C 192.789 44.082,196.979 39.795,197.773 36.001 C 199.493 27.784,193.662 21.698,185.500 23.190 M191.000 23.672 C 196.712 25.345,199.474 32.346,196.686 38.083 C 194.993 41.568,192.511 43.457,187.917 44.759 C 181.191 46.664,176.839 48.748,171.058 52.833 C 167.317 55.477,162.170 60.800,160.153 64.111 C 159.772 64.737,159.217 65.587,158.920 66.000 C 154.639 71.950,150.948 85.085,151.426 92.667 C 151.452 93.079,151.523 94.204,151.583 95.167 C 152.553 110.585,161.157 124.788,174.277 132.633 C 181.429 136.909,186.546 137.778,190.094 135.319 C 191.719 134.193,192.278 133.555,194.319 130.496 C 198.441 124.320,202.005 121.177,207.731 118.669 C 213.748 116.034,216.146 114.603,220.085 111.299 C 228.050 104.616,227.634 96.028,219.250 94.057 C 218.608 93.906,218.017 93.724,217.935 93.652 C 217.854 93.580,219.383 92.731,221.333 91.766 C 224.709 90.095,225.500 89.628,225.500 89.305 C 225.500 89.068,223.844 88.083,221.057 86.664 C 217.846 85.028,217.814 85.000,219.142 85.000 C 223.294 85.000,229.129 88.045,231.916 91.667 C 235.763 96.666,236.187 104.888,232.869 110.149 C 230.254 114.295,226.676 118.020,222.583 120.857 C 219.623 122.909,217.733 123.949,211.583 126.913 C 207.277 128.988,205.608 130.331,203.750 133.214 C 198.265 141.724,196.762 143.196,191.309 145.389 C 186.554 147.302,181.024 146.532,173.616 142.926 C 164.812 138.640,156.461 131.300,151.422 123.417 C 151.070 122.867,150.614 122.154,150.407 121.833 C 148.484 118.845,145.772 113.087,144.754 109.833 C 141.208 98.494,140.898 87.262,143.839 76.587 C 147.021 65.037,152.874 55.913,162.520 47.465 C 163.850 46.300,169.424 42.333,169.731 42.333 C 169.772 42.333,170.556 41.891,171.472 41.350 C 173.640 40.070,177.530 38.314,179.975 37.511 C 183.628 36.311,185.084 35.869,186.333 35.578 C 191.220 34.439,192.430 29.427,188.390 27.059 C 186.920 26.197,182.012 27.105,176.417 29.274 C 175.592 29.594,174.448 30.034,173.874 30.253 C 172.773 30.672,167.608 33.299,165.917 34.301 C 164.259 35.282,163.313 35.878,163.110 36.069 C 163.004 36.169,162.579 36.469,162.167 36.736 C 161.754 37.003,160.817 37.679,160.083 38.239 C 159.350 38.799,158.558 39.379,158.322 39.529 C 157.774 39.878,152.167 44.997,152.167 45.149 C 152.167 45.212,151.473 46.011,150.625 46.924 C 149.777 47.837,148.784 48.996,148.419 49.500 C 148.054 50.004,147.617 50.567,147.449 50.750 C 144.737 53.702,139.881 62.627,138.245 67.667 C 137.593 69.674,135.855 70.326,135.091 68.849 C 134.200 67.125,139.250 56.475,143.985 50.092 C 149.480 42.684,155.840 36.919,164.250 31.723 C 170.844 27.648,180.203 24.210,187.250 23.275 C 188.126 23.158,189.881 23.344,191.000 23.672 M200.247 89.250 C 200.247 99.517,200.267 103.692,200.292 98.529 C 200.316 93.366,200.316 84.966,200.292 79.862 C 200.267 74.759,200.247 78.983,200.247 89.250 M161.757 84.643 C 161.703 84.814,161.707 85.077,161.765 85.229 C 161.823 85.380,161.795 85.597,161.702 85.710 C 161.534 85.916,161.561 93.528,161.737 95.539 C 161.849 96.821,163.054 101.882,163.487 102.889 C 163.678 103.332,163.833 103.802,163.833 103.933 C 163.833 104.064,164.202 104.995,164.653 106.002 C 165.104 107.009,165.438 107.833,165.396 107.833 C 165.355 107.833,165.402 107.927,165.501 108.042 C 165.601 108.156,166.162 109.029,166.748 109.980 C 167.334 110.932,168.019 111.926,168.271 112.189 C 168.523 112.452,168.659 112.668,168.573 112.669 C 168.487 112.671,168.493 112.727,168.586 112.794 C 168.679 112.862,169.091 113.328,169.502 113.831 C 170.648 115.232,172.315 117.006,173.349 117.923 C 174.702 119.123,175.607 119.893,175.887 120.083 C 176.022 120.175,176.459 120.481,176.858 120.762 C 177.257 121.044,178.071 121.600,178.667 121.998 C 179.262 122.395,180.062 122.934,180.444 123.194 C 180.826 123.454,181.188 123.667,181.249 123.667 C 181.310 123.667,181.804 123.927,182.347 124.245 C 182.889 124.563,183.333 124.787,183.333 124.742 C 183.333 124.698,183.783 124.889,184.332 125.166 C 184.882 125.444,185.388 125.681,185.457 125.694 C 185.527 125.707,186.052 125.928,186.625 126.185 C 187.198 126.442,187.667 126.622,187.667 126.584 C 187.667 126.546,188.173 126.706,188.792 126.940 C 190.663 127.646,191.466 127.712,191.792 127.185 C 193.143 125.003,193.820 124.156,195.737 122.246 C 196.936 121.052,198.159 119.974,198.456 119.851 C 199.106 119.582,199.033 119.367,198.292 119.365 C 197.994 119.364,197.225 119.239,196.583 119.086 C 195.942 118.933,194.967 118.707,194.417 118.582 C 193.403 118.353,190.600 117.419,189.459 116.930 C 189.116 116.783,188.778 116.648,188.709 116.629 C 188.581 116.595,185.754 115.138,185.000 114.718 C 184.771 114.591,184.171 114.186,183.667 113.820 C 183.162 113.453,182.563 113.029,182.333 112.877 C 181.403 112.259,179.194 110.302,178.333 109.332 C 177.829 108.764,177.257 108.139,177.061 107.942 C 175.038 105.904,172.148 100.060,171.755 97.212 C 171.708 96.866,171.622 96.208,171.564 95.750 C 171.463 94.941,171.431 94.900,170.462 94.336 C 168.459 93.172,165.849 90.771,164.297 88.667 C 163.661 87.803,161.988 84.567,162.114 84.442 C 162.173 84.382,162.140 84.333,162.039 84.333 C 161.938 84.333,161.812 84.473,161.757 84.643 M163.405 87.764 C 164.644 89.834,167.361 92.623,169.580 94.101 C 171.003 95.050,171.082 95.134,171.208 95.841 C 173.269 107.459,182.753 116.481,195.804 119.238 C 197.976 119.696,198.063 119.745,197.500 120.195 C 195.372 121.897,193.937 123.454,192.111 126.042 C 191.128 127.434,191.165 127.431,188.094 126.315 C 181.874 124.055,177.339 121.223,172.527 116.593 C 171.096 115.216,167.716 111.065,166.887 109.667 C 163.508 103.968,161.774 97.373,161.758 90.167 C 161.747 85.342,161.859 85.178,163.405 87.764 M135.110 112.499 C 134.305 113.205,134.250 113.739,134.823 115.287 C 135.716 117.704,136.006 118.415,136.420 119.207 C 136.647 119.642,136.833 120.062,136.833 120.141 C 136.833 120.686,139.254 125.175,141.380 128.574 C 141.492 128.753,141.646 128.978,141.722 129.074 C 141.798 129.171,142.136 129.672,142.472 130.188 C 145.126 134.261,150.562 140.354,154.587 143.768 C 160.981 149.191,169.753 154.244,176.917 156.629 C 182.905 158.623,183.578 158.733,184.366 157.851 C 185.080 157.052,184.790 155.007,183.961 154.997 C 183.814 154.996,183.826 154.940,184.000 154.815 C 184.208 154.666,184.198 154.652,183.944 154.735 C 183.775 154.789,183.100 154.676,182.444 154.483 C 180.371 153.874,177.612 152.983,176.833 152.672 C 170.644 150.197,166.903 148.211,161.833 144.709 C 157.740 141.882,152.098 136.641,149.069 132.851 C 148.893 132.632,148.559 132.219,148.325 131.935 C 147.435 130.849,146.004 128.845,144.801 127.000 C 143.574 125.117,143.310 124.674,141.919 122.167 C 141.235 120.933,139.140 116.475,139.122 116.216 C 139.117 116.143,138.900 115.565,138.638 114.932 C 138.377 114.298,138.129 113.586,138.087 113.348 C 137.863 112.076,136.149 111.587,135.110 112.499 M137.239 112.708 C 137.516 112.953,137.888 113.720,138.311 114.917 C 144.745 133.146,162.121 149.065,181.583 154.560 C 183.617 155.134,183.864 155.237,184.179 155.636 C 184.770 156.388,184.583 157.529,183.803 157.932 C 182.270 158.725,170.223 154.044,164.333 150.367 C 153.769 143.772,146.403 136.346,140.161 126.000 C 138.420 123.114,135.245 116.160,134.748 114.143 C 134.421 112.814,136.199 111.790,137.239 112.708 M126.731 169.175 C 122.534 169.723,121.000 171.622,121.000 176.272 C 121.000 182.443,122.402 183.329,132.167 183.333 C 139.499 183.336,139.922 183.483,139.809 185.988 C 139.692 188.561,139.934 188.500,129.871 188.500 C 123.467 188.500,121.667 188.546,121.435 188.716 C 121.142 188.931,121.064 193.289,121.349 193.572 C 121.593 193.815,139.100 193.689,140.183 193.437 C 143.991 192.548,145.228 190.725,145.230 186.000 C 145.231 182.451,144.453 180.721,142.428 179.762 C 140.978 179.076,140.153 179.000,134.186 178.999 C 126.735 178.998,126.490 178.923,126.481 176.637 C 126.470 174.053,126.220 174.121,136.000 174.036 C 140.953 173.993,143.825 173.906,143.958 173.797 C 144.292 173.523,144.246 169.603,143.905 169.262 C 143.615 168.972,128.860 168.897,126.731 169.175 M150.563 169.199 C 150.496 169.309,150.428 170.527,150.414 171.908 L 150.387 174.417 148.735 174.462 C 146.660 174.520,146.667 174.513,146.667 176.770 C 146.667 178.989,146.678 179.000,148.807 179.000 L 150.424 179.000 150.458 183.625 C 150.523 192.500,151.840 193.984,159.411 193.708 C 161.566 193.630,161.500 193.706,161.500 191.316 C 161.500 188.998,161.749 189.209,158.917 189.125 C 155.542 189.025,155.519 188.986,155.479 183.326 L 155.450 179.083 158.171 179.037 C 161.559 178.980,161.355 179.139,161.297 176.600 L 161.250 174.583 158.375 174.538 L 155.500 174.492 155.500 172.163 C 155.500 170.882,155.513 169.815,155.528 169.792 C 155.544 169.769,155.466 169.581,155.356 169.375 C 155.121 168.936,150.823 168.779,150.563 169.199 M210.044 169.208 C 209.948 169.330,209.900 170.472,209.928 171.958 L 209.976 174.500 208.173 174.500 C 206.027 174.500,206.167 174.331,206.167 176.927 C 206.167 179.143,205.987 178.974,208.417 179.042 L 209.917 179.083 210.000 184.250 L 210.083 189.417 210.555 190.436 C 211.710 192.936,213.360 193.696,217.700 193.729 C 221.069 193.754,220.898 193.863,220.974 191.650 C 221.065 189.032,221.231 189.210,218.618 189.141 C 214.943 189.045,214.972 189.090,214.876 183.323 L 214.803 179.000 217.618 179.000 C 221.037 179.000,220.833 179.143,220.833 176.737 C 220.833 174.385,221.020 174.519,217.659 174.463 L 214.926 174.417 214.889 171.936 C 214.868 170.571,214.812 169.353,214.764 169.228 C 214.644 168.914,210.289 168.896,210.044 169.208 M143.568 169.434 C 143.915 169.567,143.967 173.394,143.625 173.615 C 143.510 173.689,139.892 173.787,135.583 173.833 C 126.022 173.935,126.167 173.892,126.167 176.637 C 126.167 179.005,126.605 179.154,133.638 179.172 C 142.619 179.196,144.135 179.837,144.845 183.912 C 145.715 188.911,144.062 192.308,140.380 193.088 C 138.865 193.409,122.017 193.450,121.700 193.133 C 121.285 192.718,121.436 189.016,121.875 188.852 C 122.081 188.775,125.792 188.709,130.121 188.704 C 140.076 188.693,139.867 188.750,139.974 186.018 C 140.082 183.260,139.908 183.196,132.083 183.108 C 122.930 183.006,121.652 182.314,121.259 177.250 C 120.886 172.454,122.555 170.021,126.565 169.512 C 127.779 169.358,143.185 169.287,143.568 169.434 M154.967 169.533 C 155.103 169.669,155.167 170.462,155.167 172.013 C 155.167 174.906,154.965 174.726,158.317 174.833 L 160.917 174.917 161.000 175.833 C 161.046 176.338,161.046 177.162,161.000 177.667 L 160.917 178.583 158.202 178.667 C 156.039 178.733,155.454 178.801,155.324 179.000 C 155.225 179.152,155.178 180.924,155.205 183.500 C 155.265 189.157,155.373 189.327,159.000 189.466 C 161.369 189.556,161.333 189.529,161.333 191.270 C 161.333 193.399,161.351 193.389,157.773 193.296 C 151.517 193.132,150.663 191.839,150.674 182.542 C 150.679 178.453,150.782 178.667,148.819 178.667 C 147.004 178.667,146.968 178.622,147.035 176.458 L 147.083 174.917 148.822 174.750 C 150.890 174.552,150.782 174.716,150.738 171.833 C 150.699 169.229,150.609 169.333,152.889 169.333 C 154.127 169.333,154.835 169.401,154.967 169.533 M214.510 169.458 C 214.516 169.527,214.558 170.633,214.603 171.917 C 214.709 174.900,214.495 174.705,217.787 174.823 L 220.417 174.917 220.465 176.581 C 220.527 178.740,220.632 178.667,217.489 178.667 C 214.299 178.667,214.577 178.205,214.639 183.397 C 214.708 189.207,214.786 189.328,218.583 189.495 L 220.583 189.583 220.631 191.124 C 220.703 193.424,220.821 193.333,217.752 193.333 C 214.039 193.333,212.398 192.808,211.365 191.288 C 210.480 189.986,210.449 189.769,210.346 184.317 C 210.232 178.244,210.403 178.696,208.193 178.631 L 206.583 178.583 206.536 176.789 C 206.481 174.722,206.322 174.894,208.400 174.772 C 210.293 174.660,210.230 174.750,210.297 172.038 C 210.328 170.780,210.384 169.656,210.422 169.542 C 210.497 169.311,214.491 169.229,214.510 169.458 M170.750 174.512 C 167.501 174.828,165.313 176.380,164.721 178.790 C 164.434 179.957,164.359 193.259,164.638 193.538 C 164.806 193.706,168.994 193.728,169.161 193.562 C 169.210 193.513,169.287 190.648,169.333 187.195 C 169.448 178.548,169.006 179.108,175.778 179.032 C 179.853 178.986,180.348 178.951,180.482 178.699 C 180.730 178.230,180.541 174.782,180.255 174.569 C 179.981 174.366,172.704 174.322,170.750 174.512 M183.274 174.747 C 183.116 175.158,183.117 178.517,183.275 178.673 C 183.353 178.749,186.529 178.838,190.333 178.869 C 196.291 178.917,197.334 178.963,197.859 179.197 C 198.649 179.551,199.333 180.684,199.333 181.640 L 199.333 182.333 193.042 182.335 C 188.326 182.337,186.541 182.393,185.917 182.560 C 183.225 183.279,182.463 184.375,182.366 187.667 C 182.255 191.401,183.368 193.024,186.417 193.577 C 187.826 193.832,202.809 193.688,203.340 193.413 C 204.315 192.909,204.334 192.773,204.330 186.133 C 204.325 177.726,203.815 176.405,200.030 175.005 L 198.917 174.593 191.146 174.539 C 184.204 174.491,183.364 174.513,183.274 174.747 M179.833 174.816 C 180.245 174.930,180.250 174.952,180.250 176.758 L 180.250 178.583 175.917 178.671 C 168.844 178.815,169.127 178.466,169.003 187.167 L 168.917 193.250 167.066 193.297 C 165.690 193.332,165.169 193.287,165.033 193.124 C 164.721 192.747,164.745 179.808,165.061 178.691 C 165.663 176.554,167.420 175.272,170.329 174.843 C 171.455 174.677,179.254 174.655,179.833 174.816 M199.267 175.093 C 201.586 175.631,202.882 176.803,203.661 179.066 C 203.945 179.891,203.992 180.644,204.067 185.542 C 204.160 191.636,204.094 192.376,203.412 192.963 L 202.959 193.352 194.438 193.293 C 185.031 193.227,184.947 193.218,183.804 192.105 C 182.246 190.587,182.137 185.901,183.620 184.169 C 184.805 182.784,185.458 182.672,192.847 182.585 C 196.094 182.547,198.919 182.512,199.125 182.508 C 200.020 182.489,199.486 180.054,198.406 179.230 L 197.777 178.750 190.813 178.667 C 186.448 178.614,183.787 178.520,183.681 178.415 C 183.480 178.214,183.376 175.335,183.559 175.039 C 183.768 174.701,197.784 174.749,199.267 175.093 M192.083 185.167 C 187.692 185.271,187.000 185.595,187.000 187.544 C 187.000 189.677,187.434 189.836,193.203 189.824 C 199.343 189.811,199.522 189.735,199.562 187.106 C 199.594 184.975,199.638 184.987,192.083 185.167 M199.299 186.823 C 199.393 189.526,199.477 189.488,193.317 189.529 C 187.375 189.568,186.929 189.400,187.267 187.250 C 187.553 185.436,187.843 185.361,194.417 185.393 L 199.250 185.417 199.299 186.823 " stroke="none" fill="#3ec4c7" fill-rule="evenodd"></path></g></svg>